ISO-10303-21;
HEADER;
/* Generated by software containing ST-Developer
 * from STEP Tools, Inc. (www.steptools.com) 
 */

FILE_DESCRIPTION(
/* description */ (''),
/* implementation_level */ '2;1');

FILE_NAME(
/* name */ 'Fan_Top_Just_a_Pi_Case.step',
/* time_stamp */ '2026-10-07T13:51:37-06:00',
/* author */ (''),
/* organization */ (''),
/* preprocessor_version */ 'ST-DEVELOPER v20.2',
/* originating_system */ 'Autodesk Translation Framework v15.15.0.0',
/* authorisation */ '');

FILE_SCHEMA (('AUTOMOTIVE_DESIGN { 1 0 10303 214 3 1 1 }'));
ENDSEC;

DATA;
#10=MECHANICAL_DESIGN_GEOMETRIC_PRESENTATION_REPRESENTATION('',(#13),#1783);
#11=SHAPE_REPRESENTATION_RELATIONSHIP('SRR','None',#1789,#12);
#12=ADVANCED_BREP_SHAPE_REPRESENTATION('',(#14),#1782);
#13=STYLED_ITEM('',(#1798),#14);
#14=MANIFOLD_SOLID_BREP('top with fan',#1127);
#15=CYLINDRICAL_SURFACE('',#1159,1.);
#16=CYLINDRICAL_SURFACE('',#1161,1.);
#17=CYLINDRICAL_SURFACE('',#1163,1.);
#18=CYLINDRICAL_SURFACE('',#1165,1.);
#19=FACE_BOUND('',#99,.T.);
#20=FACE_BOUND('',#105,.T.);
#21=FACE_BOUND('',#111,.T.);
#22=FACE_BOUND('',#117,.T.);
#23=FACE_BOUND('',#119,.T.);
#24=FACE_BOUND('',#136,.T.);
#25=FACE_BOUND('',#140,.T.);
#26=FACE_BOUND('',#142,.T.);
#27=FACE_BOUND('',#147,.T.);
#28=FACE_BOUND('',#154,.T.);
#29=CIRCLE('',#1137,1.);
#30=CIRCLE('',#1143,1.);
#31=CIRCLE('',#1149,1.);
#32=CIRCLE('',#1155,1.);
#33=CIRCLE('',#1160,1.);
#34=CIRCLE('',#1162,1.);
#35=CIRCLE('',#1164,1.);
#36=CIRCLE('',#1166,1.);
#37=FACE_OUTER_BOUND('',#91,.T.);
#38=FACE_OUTER_BOUND('',#92,.T.);
#39=FACE_OUTER_BOUND('',#93,.T.);
#40=FACE_OUTER_BOUND('',#94,.T.);
#41=FACE_OUTER_BOUND('',#95,.T.);
#42=FACE_OUTER_BOUND('',#96,.T.);
#43=FACE_OUTER_BOUND('',#97,.T.);
#44=FACE_OUTER_BOUND('',#98,.T.);
#45=FACE_OUTER_BOUND('',#100,.T.);
#46=FACE_OUTER_BOUND('',#101,.T.);
#47=FACE_OUTER_BOUND('',#102,.T.);
#48=FACE_OUTER_BOUND('',#103,.T.);
#49=FACE_OUTER_BOUND('',#104,.T.);
#50=FACE_OUTER_BOUND('',#106,.T.);
#51=FACE_OUTER_BOUND('',#107,.T.);
#52=FACE_OUTER_BOUND('',#108,.T.);
#53=FACE_OUTER_BOUND('',#109,.T.);
#54=FACE_OUTER_BOUND('',#110,.T.);
#55=FACE_OUTER_BOUND('',#112,.T.);
#56=FACE_OUTER_BOUND('',#113,.T.);
#57=FACE_OUTER_BOUND('',#114,.T.);
#58=FACE_OUTER_BOUND('',#115,.T.);
#59=FACE_OUTER_BOUND('',#116,.T.);
#60=FACE_OUTER_BOUND('',#118,.T.);
#61=FACE_OUTER_BOUND('',#120,.T.);
#62=FACE_OUTER_BOUND('',#121,.T.);
#63=FACE_OUTER_BOUND('',#122,.T.);
#64=FACE_OUTER_BOUND('',#123,.T.);
#65=FACE_OUTER_BOUND('',#124,.T.);
#66=FACE_OUTER_BOUND('',#125,.T.);
#67=FACE_OUTER_BOUND('',#126,.T.);
#68=FACE_OUTER_BOUND('',#127,.T.);
#69=FACE_OUTER_BOUND('',#128,.T.);
#70=FACE_OUTER_BOUND('',#129,.T.);
#71=FACE_OUTER_BOUND('',#130,.T.);
#72=FACE_OUTER_BOUND('',#131,.T.);
#73=FACE_OUTER_BOUND('',#132,.T.);
#74=FACE_OUTER_BOUND('',#133,.T.);
#75=FACE_OUTER_BOUND('',#134,.T.);
#76=FACE_OUTER_BOUND('',#135,.T.);
#77=FACE_OUTER_BOUND('',#137,.T.);
#78=FACE_OUTER_BOUND('',#138,.T.);
#79=FACE_OUTER_BOUND('',#139,.T.);
#80=FACE_OUTER_BOUND('',#141,.T.);
#81=FACE_OUTER_BOUND('',#143,.T.);
#82=FACE_OUTER_BOUND('',#144,.T.);
#83=FACE_OUTER_BOUND('',#145,.T.);
#84=FACE_OUTER_BOUND('',#146,.T.);
#85=FACE_OUTER_BOUND('',#148,.T.);
#86=FACE_OUTER_BOUND('',#149,.T.);
#87=FACE_OUTER_BOUND('',#150,.T.);
#88=FACE_OUTER_BOUND('',#151,.T.);
#89=FACE_OUTER_BOUND('',#152,.T.);
#90=FACE_OUTER_BOUND('',#153,.T.);
#91=EDGE_LOOP('',(#711,#712,#713,#714));
#92=EDGE_LOOP('',(#715,#716,#717,#718));
#93=EDGE_LOOP('',(#719,#720,#721,#722));
#94=EDGE_LOOP('',(#723,#724,#725,#726));
#95=EDGE_LOOP('',(#727,#728,#729,#730));
#96=EDGE_LOOP('',(#731,#732,#733,#734));
#97=EDGE_LOOP('',(#735,#736,#737,#738));
#98=EDGE_LOOP('',(#739,#740,#741,#742,#743,#744));
#99=EDGE_LOOP('',(#745));
#100=EDGE_LOOP('',(#746,#747,#748,#749));
#101=EDGE_LOOP('',(#750,#751,#752,#753));
#102=EDGE_LOOP('',(#754,#755,#756,#757));
#103=EDGE_LOOP('',(#758,#759,#760,#761));
#104=EDGE_LOOP('',(#762,#763,#764,#765,#766,#767));
#105=EDGE_LOOP('',(#768));
#106=EDGE_LOOP('',(#769,#770,#771,#772));
#107=EDGE_LOOP('',(#773,#774,#775,#776));
#108=EDGE_LOOP('',(#777,#778,#779,#780));
#109=EDGE_LOOP('',(#781,#782,#783,#784));
#110=EDGE_LOOP('',(#785,#786,#787,#788,#789,#790));
#111=EDGE_LOOP('',(#791));
#112=EDGE_LOOP('',(#792,#793,#794,#795));
#113=EDGE_LOOP('',(#796,#797,#798,#799));
#114=EDGE_LOOP('',(#800,#801,#802,#803));
#115=EDGE_LOOP('',(#804,#805,#806,#807));
#116=EDGE_LOOP('',(#808,#809,#810,#811,#812,#813));
#117=EDGE_LOOP('',(#814));
#118=EDGE_LOOP('',(#815,#816,#817,#818,#819,#820,#821,#822,#823,#824,#825,
#826,#827,#828,#829,#830,#831,#832,#833,#834));
#119=EDGE_LOOP('',(#835,#836,#837,#838));
#120=EDGE_LOOP('',(#839,#840,#841,#842,#843,#844,#845,#846,#847,#848,#849,
#850));
#121=EDGE_LOOP('',(#851,#852,#853,#854,#855,#856,#857,#858,#859,#860,#861,
#862));
#122=EDGE_LOOP('',(#863,#864,#865,#866));
#123=EDGE_LOOP('',(#867,#868,#869,#870));
#124=EDGE_LOOP('',(#871,#872,#873,#874));
#125=EDGE_LOOP('',(#875,#876,#877,#878));
#126=EDGE_LOOP('',(#879,#880,#881,#882));
#127=EDGE_LOOP('',(#883,#884,#885,#886));
#128=EDGE_LOOP('',(#887,#888,#889,#890));
#129=EDGE_LOOP('',(#891,#892,#893,#894));
#130=EDGE_LOOP('',(#895,#896,#897,#898));
#131=EDGE_LOOP('',(#899,#900,#901,#902));
#132=EDGE_LOOP('',(#903,#904,#905,#906));
#133=EDGE_LOOP('',(#907,#908,#909,#910));
#134=EDGE_LOOP('',(#911,#912,#913,#914));
#135=EDGE_LOOP('',(#915,#916,#917,#918,#919,#920));
#136=EDGE_LOOP('',(#921));
#137=EDGE_LOOP('',(#922,#923,#924,#925,#926,#927,#928,#929));
#138=EDGE_LOOP('',(#930,#931,#932,#933));
#139=EDGE_LOOP('',(#934,#935,#936,#937,#938,#939));
#140=EDGE_LOOP('',(#940));
#141=EDGE_LOOP('',(#941,#942,#943,#944,#945,#946,#947,#948,#949,#950,#951,
#952));
#142=EDGE_LOOP('',(#953,#954,#955,#956));
#143=EDGE_LOOP('',(#957,#958,#959,#960,#961,#962,#963,#964));
#144=EDGE_LOOP('',(#965,#966,#967,#968));
#145=EDGE_LOOP('',(#969,#970,#971,#972));
#146=EDGE_LOOP('',(#973,#974,#975,#976,#977,#978));
#147=EDGE_LOOP('',(#979));
#148=EDGE_LOOP('',(#980,#981,#982,#983,#984,#985,#986,#987,#988,#989,#990,
#991));
#149=EDGE_LOOP('',(#992,#993,#994,#995));
#150=EDGE_LOOP('',(#996,#997,#998,#999));
#151=EDGE_LOOP('',(#1000,#1001,#1002,#1003));
#152=EDGE_LOOP('',(#1004,#1005,#1006,#1007,#1008,#1009,#1010,#1011,#1012,
#1013,#1014,#1015));
#153=EDGE_LOOP('',(#1016,#1017,#1018,#1019,#1020,#1021));
#154=EDGE_LOOP('',(#1022));
#155=LINE('',#1469,#303);
#156=LINE('',#1471,#304);
#157=LINE('',#1473,#305);
#158=LINE('',#1474,#306);
#159=LINE('',#1477,#307);
#160=LINE('',#1479,#308);
#161=LINE('',#1480,#309);
#162=LINE('',#1484,#310);
#163=LINE('',#1486,#311);
#164=LINE('',#1488,#312);
#165=LINE('',#1489,#313);
#166=LINE('',#1493,#314);
#167=LINE('',#1495,#315);
#168=LINE('',#1497,#316);
#169=LINE('',#1498,#317);
#170=LINE('',#1501,#318);
#171=LINE('',#1503,#319);
#172=LINE('',#1504,#320);
#173=LINE('',#1507,#321);
#174=LINE('',#1509,#322);
#175=LINE('',#1510,#323);
#176=LINE('',#1513,#324);
#177=LINE('',#1515,#325);
#178=LINE('',#1516,#326);
#179=LINE('',#1519,#327);
#180=LINE('',#1520,#328);
#181=LINE('',#1526,#329);
#182=LINE('',#1528,#330);
#183=LINE('',#1530,#331);
#184=LINE('',#1531,#332);
#185=LINE('',#1534,#333);
#186=LINE('',#1536,#334);
#187=LINE('',#1537,#335);
#188=LINE('',#1540,#336);
#189=LINE('',#1542,#337);
#190=LINE('',#1543,#338);
#191=LINE('',#1546,#339);
#192=LINE('',#1548,#340);
#193=LINE('',#1549,#341);
#194=LINE('',#1552,#342);
#195=LINE('',#1553,#343);
#196=LINE('',#1559,#344);
#197=LINE('',#1561,#345);
#198=LINE('',#1563,#346);
#199=LINE('',#1564,#347);
#200=LINE('',#1567,#348);
#201=LINE('',#1569,#349);
#202=LINE('',#1570,#350);
#203=LINE('',#1573,#351);
#204=LINE('',#1575,#352);
#205=LINE('',#1576,#353);
#206=LINE('',#1579,#354);
#207=LINE('',#1581,#355);
#208=LINE('',#1582,#356);
#209=LINE('',#1585,#357);
#210=LINE('',#1586,#358);
#211=LINE('',#1592,#359);
#212=LINE('',#1594,#360);
#213=LINE('',#1596,#361);
#214=LINE('',#1597,#362);
#215=LINE('',#1600,#363);
#216=LINE('',#1602,#364);
#217=LINE('',#1603,#365);
#218=LINE('',#1606,#366);
#219=LINE('',#1608,#367);
#220=LINE('',#1609,#368);
#221=LINE('',#1612,#369);
#222=LINE('',#1614,#370);
#223=LINE('',#1615,#371);
#224=LINE('',#1618,#372);
#225=LINE('',#1619,#373);
#226=LINE('',#1623,#374);
#227=LINE('',#1624,#375);
#228=LINE('',#1625,#376);
#229=LINE('',#1626,#377);
#230=LINE('',#1629,#378);
#231=LINE('',#1631,#379);
#232=LINE('',#1633,#380);
#233=LINE('',#1634,#381);
#234=LINE('',#1637,#382);
#235=LINE('',#1639,#383);
#236=LINE('',#1641,#384);
#237=LINE('',#1643,#385);
#238=LINE('',#1645,#386);
#239=LINE('',#1647,#387);
#240=LINE('',#1648,#388);
#241=LINE('',#1651,#389);
#242=LINE('',#1652,#390);
#243=LINE('',#1654,#391);
#244=LINE('',#1655,#392);
#245=LINE('',#1658,#393);
#246=LINE('',#1662,#394);
#247=LINE('',#1666,#395);
#248=LINE('',#1670,#396);
#249=LINE('',#1674,#397);
#250=LINE('',#1676,#398);
#251=LINE('',#1677,#399);
#252=LINE('',#1680,#400);
#253=LINE('',#1682,#401);
#254=LINE('',#1683,#402);
#255=LINE('',#1686,#403);
#256=LINE('',#1687,#404);
#257=LINE('',#1690,#405);
#258=LINE('',#1692,#406);
#259=LINE('',#1693,#407);
#260=LINE('',#1696,#408);
#261=LINE('',#1697,#409);
#262=LINE('',#1699,#410);
#263=LINE('',#1703,#411);
#264=LINE('',#1705,#412);
#265=LINE('',#1707,#413);
#266=LINE('',#1708,#414);
#267=LINE('',#1711,#415);
#268=LINE('',#1713,#416);
#269=LINE('',#1714,#417);
#270=LINE('',#1717,#418);
#271=LINE('',#1718,#419);
#272=LINE('',#1720,#420);
#273=LINE('',#1723,#421);
#274=LINE('',#1725,#422);
#275=LINE('',#1726,#423);
#276=LINE('',#1728,#424);
#277=LINE('',#1729,#425);
#278=LINE('',#1731,#426);
#279=LINE('',#1734,#427);
#280=LINE('',#1736,#428);
#281=LINE('',#1738,#429);
#282=LINE('',#1740,#430);
#283=LINE('',#1741,#431);
#284=LINE('',#1744,#432);
#285=LINE('',#1746,#433);
#286=LINE('',#1747,#434);
#287=LINE('',#1749,#435);
#288=LINE('',#1751,#436);
#289=LINE('',#1752,#437);
#290=LINE('',#1755,#438);
#291=LINE('',#1756,#439);
#292=LINE('',#1758,#440);
#293=LINE('',#1760,#441);
#294=LINE('',#1763,#442);
#295=LINE('',#1765,#443);
#296=LINE('',#1766,#444);
#297=LINE('',#1768,#445);
#298=LINE('',#1771,#446);
#299=LINE('',#1772,#447);
#300=LINE('',#1775,#448);
#301=LINE('',#1776,#449);
#302=LINE('',#1778,#450);
#303=VECTOR('',#1195,10.);
#304=VECTOR('',#1196,10.);
#305=VECTOR('',#1197,10.);
#306=VECTOR('',#1198,10.);
#307=VECTOR('',#1201,10.);
#308=VECTOR('',#1202,10.);
#309=VECTOR('',#1203,10.);
#310=VECTOR('',#1206,10.);
#311=VECTOR('',#1207,10.);
#312=VECTOR('',#1208,10.);
#313=VECTOR('',#1209,10.);
#314=VECTOR('',#1212,10.);
#315=VECTOR('',#1213,10.);
#316=VECTOR('',#1214,10.);
#317=VECTOR('',#1215,10.);
#318=VECTOR('',#1218,10.);
#319=VECTOR('',#1219,10.);
#320=VECTOR('',#1220,10.);
#321=VECTOR('',#1223,10.);
#322=VECTOR('',#1224,10.);
#323=VECTOR('',#1225,10.);
#324=VECTOR('',#1228,10.);
#325=VECTOR('',#1229,10.);
#326=VECTOR('',#1230,10.);
#327=VECTOR('',#1233,10.);
#328=VECTOR('',#1234,10.);
#329=VECTOR('',#1239,10.);
#330=VECTOR('',#1240,10.);
#331=VECTOR('',#1241,10.);
#332=VECTOR('',#1242,10.);
#333=VECTOR('',#1245,10.);
#334=VECTOR('',#1246,10.);
#335=VECTOR('',#1247,10.);
#336=VECTOR('',#1250,10.);
#337=VECTOR('',#1251,10.);
#338=VECTOR('',#1252,10.);
#339=VECTOR('',#1255,10.);
#340=VECTOR('',#1256,10.);
#341=VECTOR('',#1257,10.);
#342=VECTOR('',#1260,10.);
#343=VECTOR('',#1261,10.);
#344=VECTOR('',#1266,10.);
#345=VECTOR('',#1267,10.);
#346=VECTOR('',#1268,10.);
#347=VECTOR('',#1269,10.);
#348=VECTOR('',#1272,10.);
#349=VECTOR('',#1273,10.);
#350=VECTOR('',#1274,10.);
#351=VECTOR('',#1277,10.);
#352=VECTOR('',#1278,10.);
#353=VECTOR('',#1279,10.);
#354=VECTOR('',#1282,10.);
#355=VECTOR('',#1283,10.);
#356=VECTOR('',#1284,10.);
#357=VECTOR('',#1287,10.);
#358=VECTOR('',#1288,10.);
#359=VECTOR('',#1293,10.);
#360=VECTOR('',#1294,10.);
#361=VECTOR('',#1295,10.);
#362=VECTOR('',#1296,10.);
#363=VECTOR('',#1299,10.);
#364=VECTOR('',#1300,10.);
#365=VECTOR('',#1301,10.);
#366=VECTOR('',#1304,10.);
#367=VECTOR('',#1305,10.);
#368=VECTOR('',#1306,10.);
#369=VECTOR('',#1309,10.);
#370=VECTOR('',#1310,10.);
#371=VECTOR('',#1311,10.);
#372=VECTOR('',#1314,10.);
#373=VECTOR('',#1315,10.);
#374=VECTOR('',#1320,10.);
#375=VECTOR('',#1321,10.);
#376=VECTOR('',#1322,10.);
#377=VECTOR('',#1323,10.);
#378=VECTOR('',#1324,10.);
#379=VECTOR('',#1325,10.);
#380=VECTOR('',#1326,10.);
#381=VECTOR('',#1327,10.);
#382=VECTOR('',#1330,10.);
#383=VECTOR('',#1331,10.);
#384=VECTOR('',#1332,10.);
#385=VECTOR('',#1333,10.);
#386=VECTOR('',#1334,10.);
#387=VECTOR('',#1335,10.);
#388=VECTOR('',#1336,10.);
#389=VECTOR('',#1339,10.);
#390=VECTOR('',#1340,10.);
#391=VECTOR('',#1341,10.);
#392=VECTOR('',#1342,10.);
#393=VECTOR('',#1345,1.);
#394=VECTOR('',#1350,1.);
#395=VECTOR('',#1355,1.);
#396=VECTOR('',#1360,1.);
#397=VECTOR('',#1365,10.);
#398=VECTOR('',#1366,10.);
#399=VECTOR('',#1367,10.);
#400=VECTOR('',#1370,10.);
#401=VECTOR('',#1371,10.);
#402=VECTOR('',#1372,10.);
#403=VECTOR('',#1375,10.);
#404=VECTOR('',#1376,10.);
#405=VECTOR('',#1379,10.);
#406=VECTOR('',#1380,10.);
#407=VECTOR('',#1381,10.);
#408=VECTOR('',#1384,10.);
#409=VECTOR('',#1385,10.);
#410=VECTOR('',#1388,10.);
#411=VECTOR('',#1391,10.);
#412=VECTOR('',#1392,10.);
#413=VECTOR('',#1393,10.);
#414=VECTOR('',#1394,10.);
#415=VECTOR('',#1397,10.);
#416=VECTOR('',#1398,10.);
#417=VECTOR('',#1399,10.);
#418=VECTOR('',#1402,10.);
#419=VECTOR('',#1403,10.);
#420=VECTOR('',#1406,10.);
#421=VECTOR('',#1409,10.);
#422=VECTOR('',#1410,10.);
#423=VECTOR('',#1411,10.);
#424=VECTOR('',#1414,10.);
#425=VECTOR('',#1415,10.);
#426=VECTOR('',#1418,10.);
#427=VECTOR('',#1421,10.);
#428=VECTOR('',#1422,10.);
#429=VECTOR('',#1423,10.);
#430=VECTOR('',#1424,10.);
#431=VECTOR('',#1425,10.);
#432=VECTOR('',#1428,10.);
#433=VECTOR('',#1429,10.);
#434=VECTOR('',#1430,10.);
#435=VECTOR('',#1431,10.);
#436=VECTOR('',#1432,10.);
#437=VECTOR('',#1433,10.);
#438=VECTOR('',#1436,10.);
#439=VECTOR('',#1437,10.);
#440=VECTOR('',#1440,10.);
#441=VECTOR('',#1443,10.);
#442=VECTOR('',#1446,10.);
#443=VECTOR('',#1447,10.);
#444=VECTOR('',#1448,10.);
#445=VECTOR('',#1451,10.);
#446=VECTOR('',#1454,10.);
#447=VECTOR('',#1455,10.);
#448=VECTOR('',#1458,10.);
#449=VECTOR('',#1459,10.);
#450=VECTOR('',#1462,10.);
#451=VERTEX_POINT('',#1467);
#452=VERTEX_POINT('',#1468);
#453=VERTEX_POINT('',#1470);
#454=VERTEX_POINT('',#1472);
#455=VERTEX_POINT('',#1476);
#456=VERTEX_POINT('',#1478);
#457=VERTEX_POINT('',#1482);
#458=VERTEX_POINT('',#1483);
#459=VERTEX_POINT('',#1485);
#460=VERTEX_POINT('',#1487);
#461=VERTEX_POINT('',#1491);
#462=VERTEX_POINT('',#1492);
#463=VERTEX_POINT('',#1494);
#464=VERTEX_POINT('',#1496);
#465=VERTEX_POINT('',#1500);
#466=VERTEX_POINT('',#1502);
#467=VERTEX_POINT('',#1506);
#468=VERTEX_POINT('',#1508);
#469=VERTEX_POINT('',#1512);
#470=VERTEX_POINT('',#1514);
#471=VERTEX_POINT('',#1518);
#472=VERTEX_POINT('',#1521);
#473=VERTEX_POINT('',#1524);
#474=VERTEX_POINT('',#1525);
#475=VERTEX_POINT('',#1527);
#476=VERTEX_POINT('',#1529);
#477=VERTEX_POINT('',#1533);
#478=VERTEX_POINT('',#1535);
#479=VERTEX_POINT('',#1539);
#480=VERTEX_POINT('',#1541);
#481=VERTEX_POINT('',#1545);
#482=VERTEX_POINT('',#1547);
#483=VERTEX_POINT('',#1551);
#484=VERTEX_POINT('',#1554);
#485=VERTEX_POINT('',#1557);
#486=VERTEX_POINT('',#1558);
#487=VERTEX_POINT('',#1560);
#488=VERTEX_POINT('',#1562);
#489=VERTEX_POINT('',#1566);
#490=VERTEX_POINT('',#1568);
#491=VERTEX_POINT('',#1572);
#492=VERTEX_POINT('',#1574);
#493=VERTEX_POINT('',#1578);
#494=VERTEX_POINT('',#1580);
#495=VERTEX_POINT('',#1584);
#496=VERTEX_POINT('',#1587);
#497=VERTEX_POINT('',#1590);
#498=VERTEX_POINT('',#1591);
#499=VERTEX_POINT('',#1593);
#500=VERTEX_POINT('',#1595);
#501=VERTEX_POINT('',#1599);
#502=VERTEX_POINT('',#1601);
#503=VERTEX_POINT('',#1605);
#504=VERTEX_POINT('',#1607);
#505=VERTEX_POINT('',#1611);
#506=VERTEX_POINT('',#1613);
#507=VERTEX_POINT('',#1617);
#508=VERTEX_POINT('',#1620);
#509=VERTEX_POINT('',#1627);
#510=VERTEX_POINT('',#1628);
#511=VERTEX_POINT('',#1630);
#512=VERTEX_POINT('',#1632);
#513=VERTEX_POINT('',#1636);
#514=VERTEX_POINT('',#1638);
#515=VERTEX_POINT('',#1640);
#516=VERTEX_POINT('',#1642);
#517=VERTEX_POINT('',#1644);
#518=VERTEX_POINT('',#1646);
#519=VERTEX_POINT('',#1650);
#520=VERTEX_POINT('',#1653);
#521=VERTEX_POINT('',#1657);
#522=VERTEX_POINT('',#1661);
#523=VERTEX_POINT('',#1665);
#524=VERTEX_POINT('',#1669);
#525=VERTEX_POINT('',#1673);
#526=VERTEX_POINT('',#1675);
#527=VERTEX_POINT('',#1679);
#528=VERTEX_POINT('',#1681);
#529=VERTEX_POINT('',#1685);
#530=VERTEX_POINT('',#1689);
#531=VERTEX_POINT('',#1691);
#532=VERTEX_POINT('',#1695);
#533=VERTEX_POINT('',#1701);
#534=VERTEX_POINT('',#1702);
#535=VERTEX_POINT('',#1704);
#536=VERTEX_POINT('',#1706);
#537=VERTEX_POINT('',#1710);
#538=VERTEX_POINT('',#1712);
#539=VERTEX_POINT('',#1716);
#540=VERTEX_POINT('',#1722);
#541=VERTEX_POINT('',#1724);
#542=VERTEX_POINT('',#1733);
#543=VERTEX_POINT('',#1735);
#544=VERTEX_POINT('',#1737);
#545=VERTEX_POINT('',#1739);
#546=VERTEX_POINT('',#1743);
#547=VERTEX_POINT('',#1745);
#548=VERTEX_POINT('',#1748);
#549=VERTEX_POINT('',#1750);
#550=VERTEX_POINT('',#1754);
#551=VERTEX_POINT('',#1762);
#552=VERTEX_POINT('',#1764);
#553=VERTEX_POINT('',#1770);
#554=VERTEX_POINT('',#1774);
#555=EDGE_CURVE('',#451,#452,#155,.T.);
#556=EDGE_CURVE('',#451,#453,#156,.T.);
#557=EDGE_CURVE('',#454,#453,#157,.T.);
#558=EDGE_CURVE('',#454,#452,#158,.T.);
#559=EDGE_CURVE('',#455,#452,#159,.T.);
#560=EDGE_CURVE('',#455,#456,#160,.T.);
#561=EDGE_CURVE('',#456,#451,#161,.T.);
#562=EDGE_CURVE('',#457,#458,#162,.T.);
#563=EDGE_CURVE('',#459,#458,#163,.T.);
#564=EDGE_CURVE('',#459,#460,#164,.T.);
#565=EDGE_CURVE('',#457,#460,#165,.T.);
#566=EDGE_CURVE('',#461,#462,#166,.T.);
#567=EDGE_CURVE('',#461,#463,#167,.T.);
#568=EDGE_CURVE('',#463,#464,#168,.T.);
#569=EDGE_CURVE('',#462,#464,#169,.T.);
#570=EDGE_CURVE('',#465,#461,#170,.T.);
#571=EDGE_CURVE('',#465,#466,#171,.T.);
#572=EDGE_CURVE('',#466,#463,#172,.T.);
#573=EDGE_CURVE('',#467,#465,#173,.T.);
#574=EDGE_CURVE('',#467,#468,#174,.T.);
#575=EDGE_CURVE('',#468,#466,#175,.T.);
#576=EDGE_CURVE('',#469,#467,#176,.T.);
#577=EDGE_CURVE('',#470,#469,#177,.T.);
#578=EDGE_CURVE('',#470,#468,#178,.T.);
#579=EDGE_CURVE('',#471,#470,#179,.T.);
#580=EDGE_CURVE('',#464,#471,#180,.T.);
#581=EDGE_CURVE('',#472,#472,#29,.T.);
#582=EDGE_CURVE('',#473,#474,#181,.T.);
#583=EDGE_CURVE('',#473,#475,#182,.T.);
#584=EDGE_CURVE('',#475,#476,#183,.T.);
#585=EDGE_CURVE('',#474,#476,#184,.T.);
#586=EDGE_CURVE('',#477,#473,#185,.T.);
#587=EDGE_CURVE('',#477,#478,#186,.T.);
#588=EDGE_CURVE('',#478,#475,#187,.T.);
#589=EDGE_CURVE('',#479,#477,#188,.T.);
#590=EDGE_CURVE('',#479,#480,#189,.T.);
#591=EDGE_CURVE('',#480,#478,#190,.T.);
#592=EDGE_CURVE('',#481,#479,#191,.T.);
#593=EDGE_CURVE('',#482,#481,#192,.T.);
#594=EDGE_CURVE('',#482,#480,#193,.T.);
#595=EDGE_CURVE('',#476,#483,#194,.T.);
#596=EDGE_CURVE('',#483,#482,#195,.T.);
#597=EDGE_CURVE('',#484,#484,#30,.T.);
#598=EDGE_CURVE('',#485,#486,#196,.T.);
#599=EDGE_CURVE('',#485,#487,#197,.T.);
#600=EDGE_CURVE('',#487,#488,#198,.T.);
#601=EDGE_CURVE('',#486,#488,#199,.T.);
#602=EDGE_CURVE('',#489,#485,#200,.T.);
#603=EDGE_CURVE('',#489,#490,#201,.T.);
#604=EDGE_CURVE('',#490,#487,#202,.T.);
#605=EDGE_CURVE('',#491,#489,#203,.T.);
#606=EDGE_CURVE('',#491,#492,#204,.T.);
#607=EDGE_CURVE('',#492,#490,#205,.T.);
#608=EDGE_CURVE('',#493,#491,#206,.T.);
#609=EDGE_CURVE('',#494,#493,#207,.T.);
#610=EDGE_CURVE('',#494,#492,#208,.T.);
#611=EDGE_CURVE('',#488,#495,#209,.T.);
#612=EDGE_CURVE('',#495,#494,#210,.T.);
#613=EDGE_CURVE('',#496,#496,#31,.T.);
#614=EDGE_CURVE('',#497,#498,#211,.T.);
#615=EDGE_CURVE('',#497,#499,#212,.T.);
#616=EDGE_CURVE('',#499,#500,#213,.T.);
#617=EDGE_CURVE('',#498,#500,#214,.T.);
#618=EDGE_CURVE('',#501,#497,#215,.T.);
#619=EDGE_CURVE('',#501,#502,#216,.T.);
#620=EDGE_CURVE('',#502,#499,#217,.T.);
#621=EDGE_CURVE('',#503,#501,#218,.T.);
#622=EDGE_CURVE('',#503,#504,#219,.T.);
#623=EDGE_CURVE('',#504,#502,#220,.T.);
#624=EDGE_CURVE('',#505,#503,#221,.T.);
#625=EDGE_CURVE('',#506,#505,#222,.T.);
#626=EDGE_CURVE('',#506,#504,#223,.T.);
#627=EDGE_CURVE('',#507,#506,#224,.T.);
#628=EDGE_CURVE('',#500,#507,#225,.T.);
#629=EDGE_CURVE('',#508,#508,#32,.T.);
#630=EDGE_CURVE('',#462,#493,#226,.T.);
#631=EDGE_CURVE('',#505,#486,#227,.T.);
#632=EDGE_CURVE('',#498,#481,#228,.T.);
#633=EDGE_CURVE('',#474,#469,#229,.T.);
#634=EDGE_CURVE('',#509,#510,#230,.T.);
#635=EDGE_CURVE('',#510,#511,#231,.T.);
#636=EDGE_CURVE('',#512,#511,#232,.T.);
#637=EDGE_CURVE('',#509,#512,#233,.T.);
#638=EDGE_CURVE('',#507,#513,#234,.T.);
#639=EDGE_CURVE('',#514,#513,#235,.T.);
#640=EDGE_CURVE('',#514,#515,#236,.T.);
#641=EDGE_CURVE('',#516,#515,#237,.T.);
#642=EDGE_CURVE('',#517,#516,#238,.T.);
#643=EDGE_CURVE('',#518,#517,#239,.T.);
#644=EDGE_CURVE('',#483,#518,#240,.T.);
#645=EDGE_CURVE('',#495,#519,#241,.T.);
#646=EDGE_CURVE('',#455,#519,#242,.T.);
#647=EDGE_CURVE('',#520,#454,#243,.T.);
#648=EDGE_CURVE('',#513,#520,#244,.T.);
#649=EDGE_CURVE('',#484,#521,#245,.T.);
#650=EDGE_CURVE('',#521,#521,#33,.T.);
#651=EDGE_CURVE('',#508,#522,#246,.T.);
#652=EDGE_CURVE('',#522,#522,#34,.T.);
#653=EDGE_CURVE('',#472,#523,#247,.T.);
#654=EDGE_CURVE('',#523,#523,#35,.T.);
#655=EDGE_CURVE('',#496,#524,#248,.T.);
#656=EDGE_CURVE('',#524,#524,#36,.T.);
#657=EDGE_CURVE('',#510,#525,#249,.T.);
#658=EDGE_CURVE('',#526,#509,#250,.T.);
#659=EDGE_CURVE('',#526,#525,#251,.T.);
#660=EDGE_CURVE('',#516,#527,#252,.T.);
#661=EDGE_CURVE('',#528,#527,#253,.T.);
#662=EDGE_CURVE('',#517,#528,#254,.T.);
#663=EDGE_CURVE('',#512,#529,#255,.T.);
#664=EDGE_CURVE('',#526,#529,#256,.T.);
#665=EDGE_CURVE('',#530,#515,#257,.T.);
#666=EDGE_CURVE('',#514,#531,#258,.T.);
#667=EDGE_CURVE('',#531,#530,#259,.T.);
#668=EDGE_CURVE('',#525,#532,#260,.T.);
#669=EDGE_CURVE('',#532,#511,#261,.T.);
#670=EDGE_CURVE('',#529,#532,#262,.T.);
#671=EDGE_CURVE('',#533,#534,#263,.T.);
#672=EDGE_CURVE('',#535,#534,#264,.T.);
#673=EDGE_CURVE('',#536,#535,#265,.T.);
#674=EDGE_CURVE('',#536,#533,#266,.T.);
#675=EDGE_CURVE('',#537,#530,#267,.T.);
#676=EDGE_CURVE('',#531,#538,#268,.T.);
#677=EDGE_CURVE('',#538,#537,#269,.T.);
#678=EDGE_CURVE('',#539,#453,#270,.T.);
#679=EDGE_CURVE('',#520,#539,#271,.T.);
#680=EDGE_CURVE('',#538,#539,#272,.T.);
#681=EDGE_CURVE('',#540,#537,#273,.T.);
#682=EDGE_CURVE('',#456,#541,#274,.T.);
#683=EDGE_CURVE('',#541,#540,#275,.T.);
#684=EDGE_CURVE('',#534,#540,#276,.T.);
#685=EDGE_CURVE('',#541,#535,#277,.T.);
#686=EDGE_CURVE('',#519,#536,#278,.T.);
#687=EDGE_CURVE('',#542,#533,#279,.T.);
#688=EDGE_CURVE('',#543,#542,#280,.T.);
#689=EDGE_CURVE('',#544,#543,#281,.T.);
#690=EDGE_CURVE('',#545,#544,#282,.T.);
#691=EDGE_CURVE('',#527,#545,#283,.T.);
#692=EDGE_CURVE('',#546,#544,#284,.T.);
#693=EDGE_CURVE('',#546,#547,#285,.T.);
#694=EDGE_CURVE('',#547,#458,#286,.T.);
#695=EDGE_CURVE('',#548,#457,#287,.T.);
#696=EDGE_CURVE('',#548,#549,#288,.T.);
#697=EDGE_CURVE('',#549,#545,#289,.T.);
#698=EDGE_CURVE('',#550,#460,#290,.T.);
#699=EDGE_CURVE('',#550,#548,#291,.T.);
#700=EDGE_CURVE('',#549,#528,#292,.T.);
#701=EDGE_CURVE('',#518,#550,#293,.T.);
#702=EDGE_CURVE('',#551,#459,#294,.T.);
#703=EDGE_CURVE('',#551,#552,#295,.T.);
#704=EDGE_CURVE('',#552,#471,#296,.T.);
#705=EDGE_CURVE('',#547,#551,#297,.T.);
#706=EDGE_CURVE('',#553,#543,#298,.T.);
#707=EDGE_CURVE('',#553,#546,#299,.T.);
#708=EDGE_CURVE('',#554,#542,#300,.T.);
#709=EDGE_CURVE('',#553,#554,#301,.T.);
#710=EDGE_CURVE('',#552,#554,#302,.T.);
#711=ORIENTED_EDGE('',*,*,#555,.F.);
#712=ORIENTED_EDGE('',*,*,#556,.T.);
#713=ORIENTED_EDGE('',*,*,#557,.F.);
#714=ORIENTED_EDGE('',*,*,#558,.T.);
#715=ORIENTED_EDGE('',*,*,#555,.T.);
#716=ORIENTED_EDGE('',*,*,#559,.F.);
#717=ORIENTED_EDGE('',*,*,#560,.T.);
#718=ORIENTED_EDGE('',*,*,#561,.T.);
#719=ORIENTED_EDGE('',*,*,#562,.T.);
#720=ORIENTED_EDGE('',*,*,#563,.F.);
#721=ORIENTED_EDGE('',*,*,#564,.T.);
#722=ORIENTED_EDGE('',*,*,#565,.F.);
#723=ORIENTED_EDGE('',*,*,#566,.F.);
#724=ORIENTED_EDGE('',*,*,#567,.T.);
#725=ORIENTED_EDGE('',*,*,#568,.T.);
#726=ORIENTED_EDGE('',*,*,#569,.F.);
#727=ORIENTED_EDGE('',*,*,#570,.F.);
#728=ORIENTED_EDGE('',*,*,#571,.T.);
#729=ORIENTED_EDGE('',*,*,#572,.T.);
#730=ORIENTED_EDGE('',*,*,#567,.F.);
#731=ORIENTED_EDGE('',*,*,#573,.F.);
#732=ORIENTED_EDGE('',*,*,#574,.T.);
#733=ORIENTED_EDGE('',*,*,#575,.T.);
#734=ORIENTED_EDGE('',*,*,#571,.F.);
#735=ORIENTED_EDGE('',*,*,#576,.F.);
#736=ORIENTED_EDGE('',*,*,#577,.F.);
#737=ORIENTED_EDGE('',*,*,#578,.T.);
#738=ORIENTED_EDGE('',*,*,#574,.F.);
#739=ORIENTED_EDGE('',*,*,#579,.F.);
#740=ORIENTED_EDGE('',*,*,#580,.F.);
#741=ORIENTED_EDGE('',*,*,#568,.F.);
#742=ORIENTED_EDGE('',*,*,#572,.F.);
#743=ORIENTED_EDGE('',*,*,#575,.F.);
#744=ORIENTED_EDGE('',*,*,#578,.F.);
#745=ORIENTED_EDGE('',*,*,#581,.F.);
#746=ORIENTED_EDGE('',*,*,#582,.F.);
#747=ORIENTED_EDGE('',*,*,#583,.T.);
#748=ORIENTED_EDGE('',*,*,#584,.T.);
#749=ORIENTED_EDGE('',*,*,#585,.F.);
#750=ORIENTED_EDGE('',*,*,#586,.F.);
#751=ORIENTED_EDGE('',*,*,#587,.T.);
#752=ORIENTED_EDGE('',*,*,#588,.T.);
#753=ORIENTED_EDGE('',*,*,#583,.F.);
#754=ORIENTED_EDGE('',*,*,#589,.F.);
#755=ORIENTED_EDGE('',*,*,#590,.T.);
#756=ORIENTED_EDGE('',*,*,#591,.T.);
#757=ORIENTED_EDGE('',*,*,#587,.F.);
#758=ORIENTED_EDGE('',*,*,#592,.F.);
#759=ORIENTED_EDGE('',*,*,#593,.F.);
#760=ORIENTED_EDGE('',*,*,#594,.T.);
#761=ORIENTED_EDGE('',*,*,#590,.F.);
#762=ORIENTED_EDGE('',*,*,#595,.F.);
#763=ORIENTED_EDGE('',*,*,#584,.F.);
#764=ORIENTED_EDGE('',*,*,#588,.F.);
#765=ORIENTED_EDGE('',*,*,#591,.F.);
#766=ORIENTED_EDGE('',*,*,#594,.F.);
#767=ORIENTED_EDGE('',*,*,#596,.F.);
#768=ORIENTED_EDGE('',*,*,#597,.F.);
#769=ORIENTED_EDGE('',*,*,#598,.F.);
#770=ORIENTED_EDGE('',*,*,#599,.T.);
#771=ORIENTED_EDGE('',*,*,#600,.T.);
#772=ORIENTED_EDGE('',*,*,#601,.F.);
#773=ORIENTED_EDGE('',*,*,#602,.F.);
#774=ORIENTED_EDGE('',*,*,#603,.T.);
#775=ORIENTED_EDGE('',*,*,#604,.T.);
#776=ORIENTED_EDGE('',*,*,#599,.F.);
#777=ORIENTED_EDGE('',*,*,#605,.F.);
#778=ORIENTED_EDGE('',*,*,#606,.T.);
#779=ORIENTED_EDGE('',*,*,#607,.T.);
#780=ORIENTED_EDGE('',*,*,#603,.F.);
#781=ORIENTED_EDGE('',*,*,#608,.F.);
#782=ORIENTED_EDGE('',*,*,#609,.F.);
#783=ORIENTED_EDGE('',*,*,#610,.T.);
#784=ORIENTED_EDGE('',*,*,#606,.F.);
#785=ORIENTED_EDGE('',*,*,#611,.F.);
#786=ORIENTED_EDGE('',*,*,#600,.F.);
#787=ORIENTED_EDGE('',*,*,#604,.F.);
#788=ORIENTED_EDGE('',*,*,#607,.F.);
#789=ORIENTED_EDGE('',*,*,#610,.F.);
#790=ORIENTED_EDGE('',*,*,#612,.F.);
#791=ORIENTED_EDGE('',*,*,#613,.F.);
#792=ORIENTED_EDGE('',*,*,#614,.F.);
#793=ORIENTED_EDGE('',*,*,#615,.T.);
#794=ORIENTED_EDGE('',*,*,#616,.T.);
#795=ORIENTED_EDGE('',*,*,#617,.F.);
#796=ORIENTED_EDGE('',*,*,#618,.F.);
#797=ORIENTED_EDGE('',*,*,#619,.T.);
#798=ORIENTED_EDGE('',*,*,#620,.T.);
#799=ORIENTED_EDGE('',*,*,#615,.F.);
#800=ORIENTED_EDGE('',*,*,#621,.F.);
#801=ORIENTED_EDGE('',*,*,#622,.T.);
#802=ORIENTED_EDGE('',*,*,#623,.T.);
#803=ORIENTED_EDGE('',*,*,#619,.F.);
#804=ORIENTED_EDGE('',*,*,#624,.F.);
#805=ORIENTED_EDGE('',*,*,#625,.F.);
#806=ORIENTED_EDGE('',*,*,#626,.T.);
#807=ORIENTED_EDGE('',*,*,#622,.F.);
#808=ORIENTED_EDGE('',*,*,#627,.F.);
#809=ORIENTED_EDGE('',*,*,#628,.F.);
#810=ORIENTED_EDGE('',*,*,#616,.F.);
#811=ORIENTED_EDGE('',*,*,#620,.F.);
#812=ORIENTED_EDGE('',*,*,#623,.F.);
#813=ORIENTED_EDGE('',*,*,#626,.F.);
#814=ORIENTED_EDGE('',*,*,#629,.F.);
#815=ORIENTED_EDGE('',*,*,#576,.T.);
#816=ORIENTED_EDGE('',*,*,#573,.T.);
#817=ORIENTED_EDGE('',*,*,#570,.T.);
#818=ORIENTED_EDGE('',*,*,#566,.T.);
#819=ORIENTED_EDGE('',*,*,#630,.T.);
#820=ORIENTED_EDGE('',*,*,#608,.T.);
#821=ORIENTED_EDGE('',*,*,#605,.T.);
#822=ORIENTED_EDGE('',*,*,#602,.T.);
#823=ORIENTED_EDGE('',*,*,#598,.T.);
#824=ORIENTED_EDGE('',*,*,#631,.F.);
#825=ORIENTED_EDGE('',*,*,#624,.T.);
#826=ORIENTED_EDGE('',*,*,#621,.T.);
#827=ORIENTED_EDGE('',*,*,#618,.T.);
#828=ORIENTED_EDGE('',*,*,#614,.T.);
#829=ORIENTED_EDGE('',*,*,#632,.T.);
#830=ORIENTED_EDGE('',*,*,#592,.T.);
#831=ORIENTED_EDGE('',*,*,#589,.T.);
#832=ORIENTED_EDGE('',*,*,#586,.T.);
#833=ORIENTED_EDGE('',*,*,#582,.T.);
#834=ORIENTED_EDGE('',*,*,#633,.T.);
#835=ORIENTED_EDGE('',*,*,#634,.T.);
#836=ORIENTED_EDGE('',*,*,#635,.T.);
#837=ORIENTED_EDGE('',*,*,#636,.F.);
#838=ORIENTED_EDGE('',*,*,#637,.F.);
#839=ORIENTED_EDGE('',*,*,#596,.T.);
#840=ORIENTED_EDGE('',*,*,#593,.T.);
#841=ORIENTED_EDGE('',*,*,#632,.F.);
#842=ORIENTED_EDGE('',*,*,#617,.T.);
#843=ORIENTED_EDGE('',*,*,#628,.T.);
#844=ORIENTED_EDGE('',*,*,#638,.T.);
#845=ORIENTED_EDGE('',*,*,#639,.F.);
#846=ORIENTED_EDGE('',*,*,#640,.T.);
#847=ORIENTED_EDGE('',*,*,#641,.F.);
#848=ORIENTED_EDGE('',*,*,#642,.F.);
#849=ORIENTED_EDGE('',*,*,#643,.F.);
#850=ORIENTED_EDGE('',*,*,#644,.F.);
#851=ORIENTED_EDGE('',*,*,#601,.T.);
#852=ORIENTED_EDGE('',*,*,#611,.T.);
#853=ORIENTED_EDGE('',*,*,#645,.T.);
#854=ORIENTED_EDGE('',*,*,#646,.F.);
#855=ORIENTED_EDGE('',*,*,#559,.T.);
#856=ORIENTED_EDGE('',*,*,#558,.F.);
#857=ORIENTED_EDGE('',*,*,#647,.F.);
#858=ORIENTED_EDGE('',*,*,#648,.F.);
#859=ORIENTED_EDGE('',*,*,#638,.F.);
#860=ORIENTED_EDGE('',*,*,#627,.T.);
#861=ORIENTED_EDGE('',*,*,#625,.T.);
#862=ORIENTED_EDGE('',*,*,#631,.T.);
#863=ORIENTED_EDGE('',*,*,#597,.T.);
#864=ORIENTED_EDGE('',*,*,#649,.T.);
#865=ORIENTED_EDGE('',*,*,#650,.F.);
#866=ORIENTED_EDGE('',*,*,#649,.F.);
#867=ORIENTED_EDGE('',*,*,#629,.T.);
#868=ORIENTED_EDGE('',*,*,#651,.T.);
#869=ORIENTED_EDGE('',*,*,#652,.F.);
#870=ORIENTED_EDGE('',*,*,#651,.F.);
#871=ORIENTED_EDGE('',*,*,#581,.T.);
#872=ORIENTED_EDGE('',*,*,#653,.T.);
#873=ORIENTED_EDGE('',*,*,#654,.F.);
#874=ORIENTED_EDGE('',*,*,#653,.F.);
#875=ORIENTED_EDGE('',*,*,#613,.T.);
#876=ORIENTED_EDGE('',*,*,#655,.T.);
#877=ORIENTED_EDGE('',*,*,#656,.F.);
#878=ORIENTED_EDGE('',*,*,#655,.F.);
#879=ORIENTED_EDGE('',*,*,#657,.F.);
#880=ORIENTED_EDGE('',*,*,#634,.F.);
#881=ORIENTED_EDGE('',*,*,#658,.F.);
#882=ORIENTED_EDGE('',*,*,#659,.T.);
#883=ORIENTED_EDGE('',*,*,#660,.T.);
#884=ORIENTED_EDGE('',*,*,#661,.F.);
#885=ORIENTED_EDGE('',*,*,#662,.F.);
#886=ORIENTED_EDGE('',*,*,#642,.T.);
#887=ORIENTED_EDGE('',*,*,#658,.T.);
#888=ORIENTED_EDGE('',*,*,#637,.T.);
#889=ORIENTED_EDGE('',*,*,#663,.T.);
#890=ORIENTED_EDGE('',*,*,#664,.F.);
#891=ORIENTED_EDGE('',*,*,#665,.T.);
#892=ORIENTED_EDGE('',*,*,#640,.F.);
#893=ORIENTED_EDGE('',*,*,#666,.T.);
#894=ORIENTED_EDGE('',*,*,#667,.T.);
#895=ORIENTED_EDGE('',*,*,#657,.T.);
#896=ORIENTED_EDGE('',*,*,#668,.T.);
#897=ORIENTED_EDGE('',*,*,#669,.T.);
#898=ORIENTED_EDGE('',*,*,#635,.F.);
#899=ORIENTED_EDGE('',*,*,#669,.F.);
#900=ORIENTED_EDGE('',*,*,#670,.F.);
#901=ORIENTED_EDGE('',*,*,#663,.F.);
#902=ORIENTED_EDGE('',*,*,#636,.T.);
#903=ORIENTED_EDGE('',*,*,#671,.T.);
#904=ORIENTED_EDGE('',*,*,#672,.F.);
#905=ORIENTED_EDGE('',*,*,#673,.F.);
#906=ORIENTED_EDGE('',*,*,#674,.T.);
#907=ORIENTED_EDGE('',*,*,#675,.T.);
#908=ORIENTED_EDGE('',*,*,#667,.F.);
#909=ORIENTED_EDGE('',*,*,#676,.T.);
#910=ORIENTED_EDGE('',*,*,#677,.T.);
#911=ORIENTED_EDGE('',*,*,#557,.T.);
#912=ORIENTED_EDGE('',*,*,#678,.F.);
#913=ORIENTED_EDGE('',*,*,#679,.F.);
#914=ORIENTED_EDGE('',*,*,#647,.T.);
#915=ORIENTED_EDGE('',*,*,#639,.T.);
#916=ORIENTED_EDGE('',*,*,#648,.T.);
#917=ORIENTED_EDGE('',*,*,#679,.T.);
#918=ORIENTED_EDGE('',*,*,#680,.F.);
#919=ORIENTED_EDGE('',*,*,#676,.F.);
#920=ORIENTED_EDGE('',*,*,#666,.F.);
#921=ORIENTED_EDGE('',*,*,#652,.T.);
#922=ORIENTED_EDGE('',*,*,#681,.T.);
#923=ORIENTED_EDGE('',*,*,#677,.F.);
#924=ORIENTED_EDGE('',*,*,#680,.T.);
#925=ORIENTED_EDGE('',*,*,#678,.T.);
#926=ORIENTED_EDGE('',*,*,#556,.F.);
#927=ORIENTED_EDGE('',*,*,#561,.F.);
#928=ORIENTED_EDGE('',*,*,#682,.T.);
#929=ORIENTED_EDGE('',*,*,#683,.T.);
#930=ORIENTED_EDGE('',*,*,#684,.T.);
#931=ORIENTED_EDGE('',*,*,#683,.F.);
#932=ORIENTED_EDGE('',*,*,#685,.T.);
#933=ORIENTED_EDGE('',*,*,#672,.T.);
#934=ORIENTED_EDGE('',*,*,#646,.T.);
#935=ORIENTED_EDGE('',*,*,#686,.T.);
#936=ORIENTED_EDGE('',*,*,#673,.T.);
#937=ORIENTED_EDGE('',*,*,#685,.F.);
#938=ORIENTED_EDGE('',*,*,#682,.F.);
#939=ORIENTED_EDGE('',*,*,#560,.F.);
#940=ORIENTED_EDGE('',*,*,#656,.T.);
#941=ORIENTED_EDGE('',*,*,#681,.F.);
#942=ORIENTED_EDGE('',*,*,#684,.F.);
#943=ORIENTED_EDGE('',*,*,#671,.F.);
#944=ORIENTED_EDGE('',*,*,#687,.F.);
#945=ORIENTED_EDGE('',*,*,#688,.F.);
#946=ORIENTED_EDGE('',*,*,#689,.F.);
#947=ORIENTED_EDGE('',*,*,#690,.F.);
#948=ORIENTED_EDGE('',*,*,#691,.F.);
#949=ORIENTED_EDGE('',*,*,#660,.F.);
#950=ORIENTED_EDGE('',*,*,#641,.T.);
#951=ORIENTED_EDGE('',*,*,#665,.F.);
#952=ORIENTED_EDGE('',*,*,#675,.F.);
#953=ORIENTED_EDGE('',*,*,#664,.T.);
#954=ORIENTED_EDGE('',*,*,#670,.T.);
#955=ORIENTED_EDGE('',*,*,#668,.F.);
#956=ORIENTED_EDGE('',*,*,#659,.F.);
#957=ORIENTED_EDGE('',*,*,#690,.T.);
#958=ORIENTED_EDGE('',*,*,#692,.F.);
#959=ORIENTED_EDGE('',*,*,#693,.T.);
#960=ORIENTED_EDGE('',*,*,#694,.T.);
#961=ORIENTED_EDGE('',*,*,#562,.F.);
#962=ORIENTED_EDGE('',*,*,#695,.F.);
#963=ORIENTED_EDGE('',*,*,#696,.T.);
#964=ORIENTED_EDGE('',*,*,#697,.T.);
#965=ORIENTED_EDGE('',*,*,#565,.T.);
#966=ORIENTED_EDGE('',*,*,#698,.F.);
#967=ORIENTED_EDGE('',*,*,#699,.T.);
#968=ORIENTED_EDGE('',*,*,#695,.T.);
#969=ORIENTED_EDGE('',*,*,#691,.T.);
#970=ORIENTED_EDGE('',*,*,#697,.F.);
#971=ORIENTED_EDGE('',*,*,#700,.T.);
#972=ORIENTED_EDGE('',*,*,#661,.T.);
#973=ORIENTED_EDGE('',*,*,#701,.F.);
#974=ORIENTED_EDGE('',*,*,#643,.T.);
#975=ORIENTED_EDGE('',*,*,#662,.T.);
#976=ORIENTED_EDGE('',*,*,#700,.F.);
#977=ORIENTED_EDGE('',*,*,#696,.F.);
#978=ORIENTED_EDGE('',*,*,#699,.F.);
#979=ORIENTED_EDGE('',*,*,#650,.T.);
#980=ORIENTED_EDGE('',*,*,#577,.T.);
#981=ORIENTED_EDGE('',*,*,#633,.F.);
#982=ORIENTED_EDGE('',*,*,#585,.T.);
#983=ORIENTED_EDGE('',*,*,#595,.T.);
#984=ORIENTED_EDGE('',*,*,#644,.T.);
#985=ORIENTED_EDGE('',*,*,#701,.T.);
#986=ORIENTED_EDGE('',*,*,#698,.T.);
#987=ORIENTED_EDGE('',*,*,#564,.F.);
#988=ORIENTED_EDGE('',*,*,#702,.F.);
#989=ORIENTED_EDGE('',*,*,#703,.T.);
#990=ORIENTED_EDGE('',*,*,#704,.T.);
#991=ORIENTED_EDGE('',*,*,#579,.T.);
#992=ORIENTED_EDGE('',*,*,#563,.T.);
#993=ORIENTED_EDGE('',*,*,#694,.F.);
#994=ORIENTED_EDGE('',*,*,#705,.T.);
#995=ORIENTED_EDGE('',*,*,#702,.T.);
#996=ORIENTED_EDGE('',*,*,#689,.T.);
#997=ORIENTED_EDGE('',*,*,#706,.F.);
#998=ORIENTED_EDGE('',*,*,#707,.T.);
#999=ORIENTED_EDGE('',*,*,#692,.T.);
#1000=ORIENTED_EDGE('',*,*,#688,.T.);
#1001=ORIENTED_EDGE('',*,*,#708,.F.);
#1002=ORIENTED_EDGE('',*,*,#709,.F.);
#1003=ORIENTED_EDGE('',*,*,#706,.T.);
#1004=ORIENTED_EDGE('',*,*,#580,.T.);
#1005=ORIENTED_EDGE('',*,*,#704,.F.);
#1006=ORIENTED_EDGE('',*,*,#710,.T.);
#1007=ORIENTED_EDGE('',*,*,#708,.T.);
#1008=ORIENTED_EDGE('',*,*,#687,.T.);
#1009=ORIENTED_EDGE('',*,*,#674,.F.);
#1010=ORIENTED_EDGE('',*,*,#686,.F.);
#1011=ORIENTED_EDGE('',*,*,#645,.F.);
#1012=ORIENTED_EDGE('',*,*,#612,.T.);
#1013=ORIENTED_EDGE('',*,*,#609,.T.);
#1014=ORIENTED_EDGE('',*,*,#630,.F.);
#1015=ORIENTED_EDGE('',*,*,#569,.T.);
#1016=ORIENTED_EDGE('',*,*,#693,.F.);
#1017=ORIENTED_EDGE('',*,*,#707,.F.);
#1018=ORIENTED_EDGE('',*,*,#709,.T.);
#1019=ORIENTED_EDGE('',*,*,#710,.F.);
#1020=ORIENTED_EDGE('',*,*,#703,.F.);
#1021=ORIENTED_EDGE('',*,*,#705,.F.);
#1022=ORIENTED_EDGE('',*,*,#654,.T.);
#1023=PLANE('',#1129);
#1024=PLANE('',#1130);
#1025=PLANE('',#1131);
#1026=PLANE('',#1132);
#1027=PLANE('',#1133);
#1028=PLANE('',#1134);
#1029=PLANE('',#1135);
#1030=PLANE('',#1136);
#1031=PLANE('',#1138);
#1032=PLANE('',#1139);
#1033=PLANE('',#1140);
#1034=PLANE('',#1141);
#1035=PLANE('',#1142);
#1036=PLANE('',#1144);
#1037=PLANE('',#1145);
#1038=PLANE('',#1146);
#1039=PLANE('',#1147);
#1040=PLANE('',#1148);
#1041=PLANE('',#1150);
#1042=PLANE('',#1151);
#1043=PLANE('',#1152);
#1044=PLANE('',#1153);
#1045=PLANE('',#1154);
#1046=PLANE('',#1156);
#1047=PLANE('',#1157);
#1048=PLANE('',#1158);
#1049=PLANE('',#1167);
#1050=PLANE('',#1168);
#1051=PLANE('',#1169);
#1052=PLANE('',#1170);
#1053=PLANE('',#1171);
#1054=PLANE('',#1172);
#1055=PLANE('',#1173);
#1056=PLANE('',#1174);
#1057=PLANE('',#1175);
#1058=PLANE('',#1176);
#1059=PLANE('',#1177);
#1060=PLANE('',#1178);
#1061=PLANE('',#1179);
#1062=PLANE('',#1180);
#1063=PLANE('',#1181);
#1064=PLANE('',#1182);
#1065=PLANE('',#1183);
#1066=PLANE('',#1184);
#1067=PLANE('',#1185);
#1068=PLANE('',#1186);
#1069=PLANE('',#1187);
#1070=PLANE('',#1188);
#1071=PLANE('',#1189);
#1072=PLANE('',#1190);
#1073=ADVANCED_FACE('',(#37),#1023,.F.);
#1074=ADVANCED_FACE('',(#38),#1024,.T.);
#1075=ADVANCED_FACE('',(#39),#1025,.F.);
#1076=ADVANCED_FACE('',(#40),#1026,.F.);
#1077=ADVANCED_FACE('',(#41),#1027,.F.);
#1078=ADVANCED_FACE('',(#42),#1028,.F.);
#1079=ADVANCED_FACE('',(#43),#1029,.F.);
#1080=ADVANCED_FACE('',(#44,#19),#1030,.T.);
#1081=ADVANCED_FACE('',(#45),#1031,.F.);
#1082=ADVANCED_FACE('',(#46),#1032,.F.);
#1083=ADVANCED_FACE('',(#47),#1033,.F.);
#1084=ADVANCED_FACE('',(#48),#1034,.F.);
#1085=ADVANCED_FACE('',(#49,#20),#1035,.T.);
#1086=ADVANCED_FACE('',(#50),#1036,.F.);
#1087=ADVANCED_FACE('',(#51),#1037,.F.);
#1088=ADVANCED_FACE('',(#52),#1038,.F.);
#1089=ADVANCED_FACE('',(#53),#1039,.F.);
#1090=ADVANCED_FACE('',(#54,#21),#1040,.T.);
#1091=ADVANCED_FACE('',(#55),#1041,.F.);
#1092=ADVANCED_FACE('',(#56),#1042,.F.);
#1093=ADVANCED_FACE('',(#57),#1043,.F.);
#1094=ADVANCED_FACE('',(#58),#1044,.F.);
#1095=ADVANCED_FACE('',(#59,#22),#1045,.T.);
#1096=ADVANCED_FACE('',(#60,#23),#1046,.T.);
#1097=ADVANCED_FACE('',(#61),#1047,.T.);
#1098=ADVANCED_FACE('',(#62),#1048,.T.);
#1099=ADVANCED_FACE('',(#63),#15,.F.);
#1100=ADVANCED_FACE('',(#64),#16,.F.);
#1101=ADVANCED_FACE('',(#65),#17,.F.);
#1102=ADVANCED_FACE('',(#66),#18,.F.);
#1103=ADVANCED_FACE('',(#67),#1049,.T.);
#1104=ADVANCED_FACE('',(#68),#1050,.T.);
#1105=ADVANCED_FACE('',(#69),#1051,.T.);
#1106=ADVANCED_FACE('',(#70),#1052,.T.);
#1107=ADVANCED_FACE('',(#71),#1053,.T.);
#1108=ADVANCED_FACE('',(#72),#1054,.T.);
#1109=ADVANCED_FACE('',(#73),#1055,.T.);
#1110=ADVANCED_FACE('',(#74),#1056,.T.);
#1111=ADVANCED_FACE('',(#75),#1057,.T.);
#1112=ADVANCED_FACE('',(#76,#24),#1058,.F.);
#1113=ADVANCED_FACE('',(#77),#1059,.T.);
#1114=ADVANCED_FACE('',(#78),#1060,.T.);
#1115=ADVANCED_FACE('',(#79,#25),#1061,.F.);
#1116=ADVANCED_FACE('',(#80,#26),#1062,.T.);
#1117=ADVANCED_FACE('',(#81),#1063,.T.);
#1118=ADVANCED_FACE('',(#82),#1064,.T.);
#1119=ADVANCED_FACE('',(#83),#1065,.T.);
#1120=ADVANCED_FACE('',(#84,#27),#1066,.F.);
#1121=ADVANCED_FACE('',(#85),#1067,.T.);
#1122=ADVANCED_FACE('',(#86),#1068,.T.);
#1123=ADVANCED_FACE('',(#87),#1069,.T.);
#1124=ADVANCED_FACE('',(#88),#1070,.T.);
#1125=ADVANCED_FACE('',(#89),#1071,.T.);
#1126=ADVANCED_FACE('',(#90,#28),#1072,.F.);
#1127=CLOSED_SHELL('',(#1073,#1074,#1075,#1076,#1077,#1078,#1079,#1080,
#1081,#1082,#1083,#1084,#1085,#1086,#1087,#1088,#1089,#1090,#1091,#1092,
#1093,#1094,#1095,#1096,#1097,#1098,#1099,#1100,#1101,#1102,#1103,#1104,
#1105,#1106,#1107,#1108,#1109,#1110,#1111,#1112,#1113,#1114,#1115,#1116,
#1117,#1118,#1119,#1120,#1121,#1122,#1123,#1124,#1125,#1126));
#1128=AXIS2_PLACEMENT_3D('',#1465,#1191,#1192);
#1129=AXIS2_PLACEMENT_3D('',#1466,#1193,#1194);
#1130=AXIS2_PLACEMENT_3D('',#1475,#1199,#1200);
#1131=AXIS2_PLACEMENT_3D('',#1481,#1204,#1205);
#1132=AXIS2_PLACEMENT_3D('',#1490,#1210,#1211);
#1133=AXIS2_PLACEMENT_3D('',#1499,#1216,#1217);
#1134=AXIS2_PLACEMENT_3D('',#1505,#1221,#1222);
#1135=AXIS2_PLACEMENT_3D('',#1511,#1226,#1227);
#1136=AXIS2_PLACEMENT_3D('',#1517,#1231,#1232);
#1137=AXIS2_PLACEMENT_3D('',#1522,#1235,#1236);
#1138=AXIS2_PLACEMENT_3D('',#1523,#1237,#1238);
#1139=AXIS2_PLACEMENT_3D('',#1532,#1243,#1244);
#1140=AXIS2_PLACEMENT_3D('',#1538,#1248,#1249);
#1141=AXIS2_PLACEMENT_3D('',#1544,#1253,#1254);
#1142=AXIS2_PLACEMENT_3D('',#1550,#1258,#1259);
#1143=AXIS2_PLACEMENT_3D('',#1555,#1262,#1263);
#1144=AXIS2_PLACEMENT_3D('',#1556,#1264,#1265);
#1145=AXIS2_PLACEMENT_3D('',#1565,#1270,#1271);
#1146=AXIS2_PLACEMENT_3D('',#1571,#1275,#1276);
#1147=AXIS2_PLACEMENT_3D('',#1577,#1280,#1281);
#1148=AXIS2_PLACEMENT_3D('',#1583,#1285,#1286);
#1149=AXIS2_PLACEMENT_3D('',#1588,#1289,#1290);
#1150=AXIS2_PLACEMENT_3D('',#1589,#1291,#1292);
#1151=AXIS2_PLACEMENT_3D('',#1598,#1297,#1298);
#1152=AXIS2_PLACEMENT_3D('',#1604,#1302,#1303);
#1153=AXIS2_PLACEMENT_3D('',#1610,#1307,#1308);
#1154=AXIS2_PLACEMENT_3D('',#1616,#1312,#1313);
#1155=AXIS2_PLACEMENT_3D('',#1621,#1316,#1317);
#1156=AXIS2_PLACEMENT_3D('',#1622,#1318,#1319);
#1157=AXIS2_PLACEMENT_3D('',#1635,#1328,#1329);
#1158=AXIS2_PLACEMENT_3D('',#1649,#1337,#1338);
#1159=AXIS2_PLACEMENT_3D('',#1656,#1343,#1344);
#1160=AXIS2_PLACEMENT_3D('',#1659,#1346,#1347);
#1161=AXIS2_PLACEMENT_3D('',#1660,#1348,#1349);
#1162=AXIS2_PLACEMENT_3D('',#1663,#1351,#1352);
#1163=AXIS2_PLACEMENT_3D('',#1664,#1353,#1354);
#1164=AXIS2_PLACEMENT_3D('',#1667,#1356,#1357);
#1165=AXIS2_PLACEMENT_3D('',#1668,#1358,#1359);
#1166=AXIS2_PLACEMENT_3D('',#1671,#1361,#1362);
#1167=AXIS2_PLACEMENT_3D('',#1672,#1363,#1364);
#1168=AXIS2_PLACEMENT_3D('',#1678,#1368,#1369);
#1169=AXIS2_PLACEMENT_3D('',#1684,#1373,#1374);
#1170=AXIS2_PLACEMENT_3D('',#1688,#1377,#1378);
#1171=AXIS2_PLACEMENT_3D('',#1694,#1382,#1383);
#1172=AXIS2_PLACEMENT_3D('',#1698,#1386,#1387);
#1173=AXIS2_PLACEMENT_3D('',#1700,#1389,#1390);
#1174=AXIS2_PLACEMENT_3D('',#1709,#1395,#1396);
#1175=AXIS2_PLACEMENT_3D('',#1715,#1400,#1401);
#1176=AXIS2_PLACEMENT_3D('',#1719,#1404,#1405);
#1177=AXIS2_PLACEMENT_3D('',#1721,#1407,#1408);
#1178=AXIS2_PLACEMENT_3D('',#1727,#1412,#1413);
#1179=AXIS2_PLACEMENT_3D('',#1730,#1416,#1417);
#1180=AXIS2_PLACEMENT_3D('',#1732,#1419,#1420);
#1181=AXIS2_PLACEMENT_3D('',#1742,#1426,#1427);
#1182=AXIS2_PLACEMENT_3D('',#1753,#1434,#1435);
#1183=AXIS2_PLACEMENT_3D('',#1757,#1438,#1439);
#1184=AXIS2_PLACEMENT_3D('',#1759,#1441,#1442);
#1185=AXIS2_PLACEMENT_3D('',#1761,#1444,#1445);
#1186=AXIS2_PLACEMENT_3D('',#1767,#1449,#1450);
#1187=AXIS2_PLACEMENT_3D('',#1769,#1452,#1453);
#1188=AXIS2_PLACEMENT_3D('',#1773,#1456,#1457);
#1189=AXIS2_PLACEMENT_3D('',#1777,#1460,#1461);
#1190=AXIS2_PLACEMENT_3D('',#1779,#1463,#1464);
#1191=DIRECTION('axis',(0.,0.,1.));
#1192=DIRECTION('refdir',(1.,0.,0.));
#1193=DIRECTION('center_axis',(0.,0.,-1.));
#1194=DIRECTION('ref_axis',(-1.,0.,0.));
#1195=DIRECTION('',(0.,-1.,0.));
#1196=DIRECTION('',(-1.,0.,0.));
#1197=DIRECTION('',(0.,1.,0.));
#1198=DIRECTION('',(1.,0.,0.));
#1199=DIRECTION('center_axis',(-1.,0.,0.));
#1200=DIRECTION('ref_axis',(0.,1.,0.));
#1201=DIRECTION('',(0.,0.,-1.));
#1202=DIRECTION('',(0.,1.,0.));
#1203=DIRECTION('',(0.,0.,-1.));
#1204=DIRECTION('center_axis',(0.,0.,-1.));
#1205=DIRECTION('ref_axis',(-1.,0.,0.));
#1206=DIRECTION('',(1.,0.,0.));
#1207=DIRECTION('',(0.,-1.,0.));
#1208=DIRECTION('',(-1.,0.,0.));
#1209=DIRECTION('',(0.,1.,0.));
#1210=DIRECTION('center_axis',(0.866025403784439,-0.499999999999999,0.));
#1211=DIRECTION('ref_axis',(0.499999999999999,0.866025403784439,0.));
#1212=DIRECTION('',(0.499999999999999,0.866025403784439,0.));
#1213=DIRECTION('',(0.,0.,1.));
#1214=DIRECTION('',(0.499999999999999,0.866025403784439,0.));
#1215=DIRECTION('',(0.,0.,1.));
#1216=DIRECTION('center_axis',(1.92296268638356E-15,-1.,0.));
#1217=DIRECTION('ref_axis',(1.,1.92296268638356E-15,0.));
#1218=DIRECTION('',(1.,1.92296268638356E-15,0.));
#1219=DIRECTION('',(0.,0.,1.));
#1220=DIRECTION('',(1.,1.92296268638356E-15,0.));
#1221=DIRECTION('center_axis',(-0.866025403784438,-0.500000000000001,0.));
#1222=DIRECTION('ref_axis',(0.500000000000001,-0.866025403784438,0.));
#1223=DIRECTION('',(0.500000000000001,-0.866025403784438,0.));
#1224=DIRECTION('',(0.,0.,1.));
#1225=DIRECTION('',(0.500000000000001,-0.866025403784438,0.));
#1226=DIRECTION('center_axis',(-0.866025403784439,0.499999999999999,0.));
#1227=DIRECTION('ref_axis',(-0.499999999999999,-0.866025403784439,0.));
#1228=DIRECTION('',(-0.499999999999999,-0.866025403784439,0.));
#1229=DIRECTION('',(0.,0.,-1.));
#1230=DIRECTION('',(-0.499999999999999,-0.866025403784439,0.));
#1231=DIRECTION('center_axis',(0.,0.,-1.));
#1232=DIRECTION('ref_axis',(1.,0.,0.));
#1233=DIRECTION('',(-1.,6.97157315306238E-17,0.));
#1234=DIRECTION('',(0.,1.,0.));
#1235=DIRECTION('center_axis',(0.,0.,-1.));
#1236=DIRECTION('ref_axis',(1.,0.,0.));
#1237=DIRECTION('center_axis',(0.866025403784438,0.500000000000001,0.));
#1238=DIRECTION('ref_axis',(-0.500000000000001,0.866025403784438,0.));
#1239=DIRECTION('',(-0.500000000000001,0.866025403784438,0.));
#1240=DIRECTION('',(0.,0.,1.));
#1241=DIRECTION('',(-0.500000000000001,0.866025403784438,0.));
#1242=DIRECTION('',(0.,0.,1.));
#1243=DIRECTION('center_axis',(0.866025403784439,-0.499999999999999,0.));
#1244=DIRECTION('ref_axis',(0.499999999999999,0.866025403784439,0.));
#1245=DIRECTION('',(0.499999999999999,0.866025403784439,0.));
#1246=DIRECTION('',(0.,0.,1.));
#1247=DIRECTION('',(0.499999999999999,0.866025403784439,0.));
#1248=DIRECTION('center_axis',(1.92296268638356E-15,-1.,0.));
#1249=DIRECTION('ref_axis',(1.,1.92296268638356E-15,0.));
#1250=DIRECTION('',(1.,1.92296268638356E-15,0.));
#1251=DIRECTION('',(0.,0.,1.));
#1252=DIRECTION('',(1.,1.92296268638356E-15,0.));
#1253=DIRECTION('center_axis',(-0.866025403784438,-0.500000000000001,0.));
#1254=DIRECTION('ref_axis',(0.500000000000001,-0.866025403784438,0.));
#1255=DIRECTION('',(0.500000000000001,-0.866025403784438,0.));
#1256=DIRECTION('',(0.,0.,-1.));
#1257=DIRECTION('',(0.500000000000001,-0.866025403784438,0.));
#1258=DIRECTION('center_axis',(0.,0.,-1.));
#1259=DIRECTION('ref_axis',(1.,0.,0.));
#1260=DIRECTION('',(-1.,6.97157315306238E-17,0.));
#1261=DIRECTION('',(0.,-1.,0.));
#1262=DIRECTION('center_axis',(0.,0.,-1.));
#1263=DIRECTION('ref_axis',(1.,0.,0.));
#1264=DIRECTION('center_axis',(-0.866025403784438,-0.500000000000001,0.));
#1265=DIRECTION('ref_axis',(0.500000000000001,-0.866025403784438,0.));
#1266=DIRECTION('',(0.500000000000001,-0.866025403784438,0.));
#1267=DIRECTION('',(0.,0.,1.));
#1268=DIRECTION('',(0.500000000000001,-0.866025403784438,0.));
#1269=DIRECTION('',(0.,0.,1.));
#1270=DIRECTION('center_axis',(-0.866025403784439,0.499999999999999,0.));
#1271=DIRECTION('ref_axis',(-0.499999999999999,-0.866025403784439,0.));
#1272=DIRECTION('',(-0.499999999999999,-0.866025403784439,0.));
#1273=DIRECTION('',(0.,0.,1.));
#1274=DIRECTION('',(-0.499999999999999,-0.866025403784439,0.));
#1275=DIRECTION('center_axis',(-1.92296268638356E-15,1.,0.));
#1276=DIRECTION('ref_axis',(-1.,-1.92296268638356E-15,0.));
#1277=DIRECTION('',(-1.,-1.92296268638356E-15,0.));
#1278=DIRECTION('',(0.,0.,1.));
#1279=DIRECTION('',(-1.,-1.92296268638356E-15,0.));
#1280=DIRECTION('center_axis',(0.866025403784438,0.500000000000001,0.));
#1281=DIRECTION('ref_axis',(-0.500000000000001,0.866025403784438,0.));
#1282=DIRECTION('',(-0.500000000000001,0.866025403784438,0.));
#1283=DIRECTION('',(0.,0.,-1.));
#1284=DIRECTION('',(-0.500000000000001,0.866025403784438,0.));
#1285=DIRECTION('center_axis',(0.,0.,-1.));
#1286=DIRECTION('ref_axis',(1.,0.,0.));
#1287=DIRECTION('',(1.,0.,0.));
#1288=DIRECTION('',(0.,1.,0.));
#1289=DIRECTION('center_axis',(0.,0.,-1.));
#1290=DIRECTION('ref_axis',(1.,0.,0.));
#1291=DIRECTION('center_axis',(-0.866025403784439,0.499999999999999,0.));
#1292=DIRECTION('ref_axis',(-0.499999999999999,-0.866025403784439,0.));
#1293=DIRECTION('',(-0.499999999999999,-0.866025403784439,0.));
#1294=DIRECTION('',(0.,0.,1.));
#1295=DIRECTION('',(-0.499999999999999,-0.866025403784439,0.));
#1296=DIRECTION('',(0.,0.,1.));
#1297=DIRECTION('center_axis',(-1.92296268638356E-15,1.,0.));
#1298=DIRECTION('ref_axis',(-1.,-1.92296268638356E-15,0.));
#1299=DIRECTION('',(-1.,-1.92296268638356E-15,0.));
#1300=DIRECTION('',(0.,0.,1.));
#1301=DIRECTION('',(-1.,-1.92296268638356E-15,0.));
#1302=DIRECTION('center_axis',(0.866025403784438,0.500000000000001,0.));
#1303=DIRECTION('ref_axis',(-0.500000000000001,0.866025403784438,0.));
#1304=DIRECTION('',(-0.500000000000001,0.866025403784438,0.));
#1305=DIRECTION('',(0.,0.,1.));
#1306=DIRECTION('',(-0.500000000000001,0.866025403784438,0.));
#1307=DIRECTION('center_axis',(0.866025403784439,-0.499999999999999,0.));
#1308=DIRECTION('ref_axis',(0.499999999999999,0.866025403784439,0.));
#1309=DIRECTION('',(0.499999999999999,0.866025403784439,0.));
#1310=DIRECTION('',(0.,0.,-1.));
#1311=DIRECTION('',(0.499999999999999,0.866025403784439,0.));
#1312=DIRECTION('center_axis',(0.,0.,-1.));
#1313=DIRECTION('ref_axis',(1.,0.,0.));
#1314=DIRECTION('',(1.,0.,0.));
#1315=DIRECTION('',(0.,-1.,0.));
#1316=DIRECTION('center_axis',(0.,0.,-1.));
#1317=DIRECTION('ref_axis',(1.,0.,0.));
#1318=DIRECTION('center_axis',(0.,0.,-1.));
#1319=DIRECTION('ref_axis',(0.,1.,0.));
#1320=DIRECTION('',(0.,-1.,0.));
#1321=DIRECTION('',(1.,0.,0.));
#1322=DIRECTION('',(0.,1.,0.));
#1323=DIRECTION('',(1.,0.,0.));
#1324=DIRECTION('',(0.,-1.,0.));
#1325=DIRECTION('',(1.,0.,0.));
#1326=DIRECTION('',(0.,-1.,0.));
#1327=DIRECTION('',(1.,0.,0.));
#1328=DIRECTION('center_axis',(-1.,0.,0.));
#1329=DIRECTION('ref_axis',(0.,1.,0.));
#1330=DIRECTION('',(0.,0.,1.));
#1331=DIRECTION('',(0.,-1.,0.));
#1332=DIRECTION('',(0.,0.,-1.));
#1333=DIRECTION('',(0.,-1.,0.));
#1334=DIRECTION('',(0.,0.,-1.));
#1335=DIRECTION('',(0.,-1.,0.));
#1336=DIRECTION('',(0.,0.,1.));
#1337=DIRECTION('center_axis',(0.,-1.,0.));
#1338=DIRECTION('ref_axis',(-1.,0.,0.));
#1339=DIRECTION('',(0.,0.,1.));
#1340=DIRECTION('',(1.,0.,0.));
#1341=DIRECTION('',(0.,0.,-1.));
#1342=DIRECTION('',(1.,0.,0.));
#1343=DIRECTION('center_axis',(0.,0.,1.));
#1344=DIRECTION('ref_axis',(1.,0.,0.));
#1345=DIRECTION('',(0.,0.,1.));
#1346=DIRECTION('center_axis',(0.,0.,-1.));
#1347=DIRECTION('ref_axis',(1.,0.,0.));
#1348=DIRECTION('center_axis',(0.,0.,1.));
#1349=DIRECTION('ref_axis',(1.,0.,0.));
#1350=DIRECTION('',(0.,0.,1.));
#1351=DIRECTION('center_axis',(0.,0.,-1.));
#1352=DIRECTION('ref_axis',(1.,0.,0.));
#1353=DIRECTION('center_axis',(0.,0.,1.));
#1354=DIRECTION('ref_axis',(1.,0.,0.));
#1355=DIRECTION('',(0.,0.,1.));
#1356=DIRECTION('center_axis',(0.,0.,-1.));
#1357=DIRECTION('ref_axis',(1.,0.,0.));
#1358=DIRECTION('center_axis',(0.,0.,1.));
#1359=DIRECTION('ref_axis',(1.,0.,0.));
#1360=DIRECTION('',(0.,0.,1.));
#1361=DIRECTION('center_axis',(0.,0.,-1.));
#1362=DIRECTION('ref_axis',(1.,0.,0.));
#1363=DIRECTION('center_axis',(1.,0.,0.));
#1364=DIRECTION('ref_axis',(0.,0.,1.));
#1365=DIRECTION('',(0.,0.,1.));
#1366=DIRECTION('',(0.,0.,-1.));
#1367=DIRECTION('',(0.,-1.,0.));
#1368=DIRECTION('center_axis',(0.,-1.,0.));
#1369=DIRECTION('ref_axis',(-1.,0.,0.));
#1370=DIRECTION('',(1.,0.,0.));
#1371=DIRECTION('',(0.,0.,-1.));
#1372=DIRECTION('',(1.,0.,0.));
#1373=DIRECTION('center_axis',(0.,-1.,0.));
#1374=DIRECTION('ref_axis',(-1.,0.,0.));
#1375=DIRECTION('',(0.,0.,1.));
#1376=DIRECTION('',(1.,0.,0.));
#1377=DIRECTION('center_axis',(0.,1.,0.));
#1378=DIRECTION('ref_axis',(1.,0.,0.));
#1379=DIRECTION('',(-1.,0.,0.));
#1380=DIRECTION('',(1.,0.,0.));
#1381=DIRECTION('',(0.,0.,-1.));
#1382=DIRECTION('center_axis',(0.,1.,0.));
#1383=DIRECTION('ref_axis',(1.,0.,0.));
#1384=DIRECTION('',(1.,0.,0.));
#1385=DIRECTION('',(0.,0.,-1.));
#1386=DIRECTION('center_axis',(-1.,0.,0.));
#1387=DIRECTION('ref_axis',(0.,0.,-1.));
#1388=DIRECTION('',(0.,-1.,0.));
#1389=DIRECTION('center_axis',(0.,1.,0.));
#1390=DIRECTION('ref_axis',(1.,0.,0.));
#1391=DIRECTION('',(-1.,0.,0.));
#1392=DIRECTION('',(0.,0.,-1.));
#1393=DIRECTION('',(-1.,0.,0.));
#1394=DIRECTION('',(0.,0.,-1.));
#1395=DIRECTION('center_axis',(1.,0.,0.));
#1396=DIRECTION('ref_axis',(0.,-1.,0.));
#1397=DIRECTION('',(0.,1.,8.18789480661051E-15));
#1398=DIRECTION('',(0.,-1.,0.));
#1399=DIRECTION('',(0.,0.,-1.));
#1400=DIRECTION('center_axis',(1.,0.,0.));
#1401=DIRECTION('ref_axis',(0.,-1.,0.));
#1402=DIRECTION('',(0.,0.,-1.));
#1403=DIRECTION('',(0.,1.,0.));
#1404=DIRECTION('center_axis',(0.,0.,-1.));
#1405=DIRECTION('ref_axis',(1.,0.,0.));
#1406=DIRECTION('',(1.,0.,0.));
#1407=DIRECTION('center_axis',(0.,1.,0.));
#1408=DIRECTION('ref_axis',(1.,0.,0.));
#1409=DIRECTION('',(-1.,0.,1.94846332473657E-30));
#1410=DIRECTION('',(1.,0.,0.));
#1411=DIRECTION('',(0.,0.,-1.));
#1412=DIRECTION('center_axis',(-1.,0.,0.));
#1413=DIRECTION('ref_axis',(0.,1.,0.));
#1414=DIRECTION('',(0.,-1.,-8.18789480661051E-15));
#1415=DIRECTION('',(0.,1.,0.));
#1416=DIRECTION('center_axis',(0.,0.,-1.));
#1417=DIRECTION('ref_axis',(1.,0.,0.));
#1418=DIRECTION('',(-9.11887494558677E-17,1.,0.));
#1419=DIRECTION('center_axis',(0.,0.,1.));
#1420=DIRECTION('ref_axis',(0.,-1.,0.));
#1421=DIRECTION('',(0.,-1.,0.));
#1422=DIRECTION('',(1.,0.,0.));
#1423=DIRECTION('',(0.,-1.,-8.18789480661051E-15));
#1424=DIRECTION('',(1.,0.,-1.94846332473657E-30));
#1425=DIRECTION('',(0.,1.,8.18789480661051E-15));
#1426=DIRECTION('center_axis',(0.,-1.,0.));
#1427=DIRECTION('ref_axis',(-1.,0.,0.));
#1428=DIRECTION('',(0.,0.,-1.));
#1429=DIRECTION('',(-1.,0.,0.));
#1430=DIRECTION('',(0.,0.,-1.));
#1431=DIRECTION('',(0.,0.,-1.));
#1432=DIRECTION('',(-1.,0.,0.));
#1433=DIRECTION('',(0.,0.,-1.));
#1434=DIRECTION('center_axis',(1.,0.,0.));
#1435=DIRECTION('ref_axis',(0.,-1.,0.));
#1436=DIRECTION('',(0.,0.,-1.));
#1437=DIRECTION('',(0.,-1.,0.));
#1438=DIRECTION('center_axis',(1.,0.,0.));
#1439=DIRECTION('ref_axis',(0.,-1.,0.));
#1440=DIRECTION('',(0.,-1.,0.));
#1441=DIRECTION('center_axis',(0.,0.,-1.));
#1442=DIRECTION('ref_axis',(1.,0.,0.));
#1443=DIRECTION('',(1.,-6.97157315306238E-17,0.));
#1444=DIRECTION('center_axis',(6.97157315306238E-17,1.,0.));
#1445=DIRECTION('ref_axis',(1.,-6.97157315306238E-17,0.));
#1446=DIRECTION('',(0.,0.,-1.));
#1447=DIRECTION('',(1.,-6.97157315306238E-17,0.));
#1448=DIRECTION('',(0.,0.,-1.));
#1449=DIRECTION('center_axis',(-1.,0.,0.));
#1450=DIRECTION('ref_axis',(0.,1.,0.));
#1451=DIRECTION('',(0.,1.,0.));
#1452=DIRECTION('center_axis',(-1.,0.,0.));
#1453=DIRECTION('ref_axis',(0.,1.,0.));
#1454=DIRECTION('',(0.,0.,-1.));
#1455=DIRECTION('',(0.,1.,0.));
#1456=DIRECTION('center_axis',(0.,-1.,0.));
#1457=DIRECTION('ref_axis',(-1.,0.,0.));
#1458=DIRECTION('',(0.,0.,-1.));
#1459=DIRECTION('',(1.,0.,0.));
#1460=DIRECTION('center_axis',(1.,0.,0.));
#1461=DIRECTION('ref_axis',(0.,-1.,0.));
#1462=DIRECTION('',(0.,-1.,0.));
#1463=DIRECTION('center_axis',(0.,0.,-1.));
#1464=DIRECTION('ref_axis',(1.,0.,0.));
#1465=CARTESIAN_POINT('',(0.,0.,0.));
#1466=CARTESIAN_POINT('Origin',(1.11466391672366E-12,2.44249065417534E-13,
-7.));
#1467=CARTESIAN_POINT('',(23.8500000000003,-20.349999999999,-7.));
#1468=CARTESIAN_POINT('',(23.8500000000003,-24.349999999999,-7.));
#1469=CARTESIAN_POINT('',(23.8500000000003,-12.1749999999994,-7.));
#1470=CARTESIAN_POINT('',(-23.8499999999981,-20.349999999999,-7.));
#1471=CARTESIAN_POINT('',(11.9250000000007,-20.349999999999,-7.));
#1472=CARTESIAN_POINT('',(-23.8499999999981,-24.349999999999,-7.));
#1473=CARTESIAN_POINT('',(-23.8499999999981,-10.1749999999994,-7.));
#1474=CARTESIAN_POINT('',(-11.9249999999985,-24.349999999999,-7.));
#1475=CARTESIAN_POINT('Origin',(23.8500000000003,-24.349999999999,0.));
#1476=CARTESIAN_POINT('',(23.8500000000003,-24.349999999999,0.));
#1477=CARTESIAN_POINT('',(23.8500000000003,-24.349999999999,0.));
#1478=CARTESIAN_POINT('',(23.8500000000003,-20.349999999999,0.));
#1479=CARTESIAN_POINT('',(23.8500000000003,-24.349999999999,0.));
#1480=CARTESIAN_POINT('',(23.8500000000003,-20.349999999999,0.));
#1481=CARTESIAN_POINT('Origin',(1.11466391672366E-12,2.44249065417534E-13,
-7.));
#1482=CARTESIAN_POINT('',(-23.8499999999981,20.3499999999995,-7.));
#1483=CARTESIAN_POINT('',(23.8500000000003,20.3499999999995,-7.));
#1484=CARTESIAN_POINT('',(-11.9249999999985,20.3499999999995,-7.));
#1485=CARTESIAN_POINT('',(23.8500000000003,24.3499999999995,-7.));
#1486=CARTESIAN_POINT('',(23.8500000000003,10.1749999999999,-7.));
#1487=CARTESIAN_POINT('',(-23.8499999999981,24.3499999999995,-7.));
#1488=CARTESIAN_POINT('',(11.9250000000007,24.3499999999995,-7.));
#1489=CARTESIAN_POINT('',(-23.8499999999981,12.1749999999999,-7.));
#1490=CARTESIAN_POINT('Origin',(31.0047005383796,20.3499999999995,-21.6999999999997));
#1491=CARTESIAN_POINT('',(31.0047005383796,20.3499999999995,-21.6999999999997));
#1492=CARTESIAN_POINT('',(31.8500000000003,21.8141016151373,-21.6999999999997));
#1493=CARTESIAN_POINT('',(22.281837567298,5.24155814662493,-21.6999999999997));
#1494=CARTESIAN_POINT('',(31.0047005383796,20.3499999999995,-11.6999999999997));
#1495=CARTESIAN_POINT('',(31.0047005383796,20.3499999999995,-21.6999999999997));
#1496=CARTESIAN_POINT('',(31.8500000000003,21.8141016151373,-11.6999999999997));
#1497=CARTESIAN_POINT('',(32.1594010767588,22.3499999999995,-11.6999999999997));
#1498=CARTESIAN_POINT('',(31.8500000000003,21.8141016151373,-10.8499999999999));
#1499=CARTESIAN_POINT('Origin',(28.6952994616211,20.3499999999995,-21.6999999999997));
#1500=CARTESIAN_POINT('',(28.6952994616211,20.3499999999995,-21.6999999999997));
#1501=CARTESIAN_POINT('',(-1.57735026918852,20.3499999999995,-21.6999999999997));
#1502=CARTESIAN_POINT('',(28.6952994616211,20.3499999999995,-11.6999999999997));
#1503=CARTESIAN_POINT('',(28.6952994616211,20.3499999999995,-21.6999999999997));
#1504=CARTESIAN_POINT('',(31.0047005383796,20.3499999999995,-11.6999999999997));
#1505=CARTESIAN_POINT('Origin',(27.5405989232418,22.3499999999995,-21.6999999999997));
#1506=CARTESIAN_POINT('',(27.5405989232418,22.3499999999995,-21.6999999999997));
#1507=CARTESIAN_POINT('',(21.4158121635134,32.9584418533742,-21.6999999999997));
#1508=CARTESIAN_POINT('',(27.5405989232418,22.3499999999995,-11.6999999999997));
#1509=CARTESIAN_POINT('',(27.5405989232418,22.3499999999995,-21.6999999999997));
#1510=CARTESIAN_POINT('',(28.6952994616211,20.3499999999995,-11.6999999999997));
#1511=CARTESIAN_POINT('Origin',(28.6952994616211,24.3499999999995,-21.6999999999997));
#1512=CARTESIAN_POINT('',(28.6952994616211,24.3499999999995,-21.6999999999997));
#1513=CARTESIAN_POINT('',(19.3950862213498,8.24155814662492,-21.6999999999997));
#1514=CARTESIAN_POINT('',(28.6952994616211,24.3499999999995,-11.6999999999997));
#1515=CARTESIAN_POINT('',(28.6952994616211,24.3499999999995,-10.8499999999999));
#1516=CARTESIAN_POINT('',(27.5405989232418,22.3499999999995,-11.6999999999997));
#1517=CARTESIAN_POINT('Origin',(29.6952994616211,22.3499999999995,-11.6999999999997));
#1518=CARTESIAN_POINT('',(31.8500000000003,24.3499999999995,-11.6999999999997));
#1519=CARTESIAN_POINT('',(26.7726497308107,24.3499999999995,-11.6999999999997));
#1520=CARTESIAN_POINT('',(31.8500000000003,23.3499999999995,-11.6999999999997));
#1521=CARTESIAN_POINT('',(28.8500000000003,22.3499999999995,-11.6999999999997));
#1522=CARTESIAN_POINT('Origin',(29.8500000000003,22.3499999999995,-11.6999999999997));
#1523=CARTESIAN_POINT('Origin',(-27.5405989232396,22.3499999999995,-21.6999999999997));
#1524=CARTESIAN_POINT('',(-27.5405989232396,22.3499999999995,-21.6999999999997));
#1525=CARTESIAN_POINT('',(-28.6952994616188,24.3499999999995,-21.6999999999997));
#1526=CARTESIAN_POINT('',(-26.7802359521577,21.0330127018918,-21.6999999999997));
#1527=CARTESIAN_POINT('',(-27.5405989232396,22.3499999999995,-11.6999999999997));
#1528=CARTESIAN_POINT('',(-27.5405989232396,22.3499999999995,-21.6999999999997));
#1529=CARTESIAN_POINT('',(-28.6952994616188,24.3499999999995,-11.6999999999997));
#1530=CARTESIAN_POINT('',(-28.6952994616188,24.3499999999995,-11.6999999999997));
#1531=CARTESIAN_POINT('',(-28.6952994616189,24.3499999999995,-10.8499999999999));
#1532=CARTESIAN_POINT('Origin',(-28.6952994616188,20.3499999999995,-21.6999999999997));
#1533=CARTESIAN_POINT('',(-28.6952994616188,20.3499999999995,-21.6999999999997));
#1534=CARTESIAN_POINT('',(-29.9556624327007,18.1669872981073,-21.6999999999997));
#1535=CARTESIAN_POINT('',(-28.6952994616188,20.3499999999995,-11.6999999999997));
#1536=CARTESIAN_POINT('',(-28.6952994616188,20.3499999999995,-21.6999999999997));
#1537=CARTESIAN_POINT('',(-27.5405989232396,22.3499999999995,-11.6999999999997));
#1538=CARTESIAN_POINT('Origin',(-31.0047005383773,20.3499999999995,-21.6999999999997));
#1539=CARTESIAN_POINT('',(-31.0047005383773,20.3499999999995,-21.6999999999997));
#1540=CARTESIAN_POINT('',(-31.4273502691877,20.3499999999995,-21.6999999999997));
#1541=CARTESIAN_POINT('',(-31.0047005383773,20.3499999999995,-11.6999999999997));
#1542=CARTESIAN_POINT('',(-31.0047005383773,20.3499999999995,-21.6999999999997));
#1543=CARTESIAN_POINT('',(-28.6952994616188,20.3499999999995,-11.6999999999997));
#1544=CARTESIAN_POINT('Origin',(-31.8499999999981,21.8141016151373,-21.6999999999997));
#1545=CARTESIAN_POINT('',(-31.8499999999981,21.8141016151373,-21.6999999999997));
#1546=CARTESIAN_POINT('',(-30.6669872981059,19.7650635094606,-21.6999999999997));
#1547=CARTESIAN_POINT('',(-31.8499999999981,21.8141016151373,-11.6999999999997));
#1548=CARTESIAN_POINT('',(-31.8499999999981,21.8141016151373,-10.8499999999999));
#1549=CARTESIAN_POINT('',(-31.0047005383773,20.3499999999995,-11.6999999999997));
#1550=CARTESIAN_POINT('Origin',(-29.6952994616188,22.3499999999995,-11.6999999999997));
#1551=CARTESIAN_POINT('',(-31.8499999999981,24.3499999999995,-11.6999999999997));
#1552=CARTESIAN_POINT('',(-2.92264973080926,24.3499999999995,-11.6999999999997));
#1553=CARTESIAN_POINT('',(-31.8499999999981,19.3499999999995,-11.6999999999997));
#1554=CARTESIAN_POINT('',(-30.8499999999981,22.3499999999995,-11.6999999999997));
#1555=CARTESIAN_POINT('Origin',(-29.8499999999981,22.3499999999995,-11.6999999999997));
#1556=CARTESIAN_POINT('Origin',(27.5405989232418,-22.3499999999991,-21.6999999999997));
#1557=CARTESIAN_POINT('',(27.5405989232418,-22.3499999999991,-21.6999999999997));
#1558=CARTESIAN_POINT('',(28.6952994616211,-24.349999999999,-21.6999999999997));
#1559=CARTESIAN_POINT('',(11.7379782762226,5.02094185337504,-21.6999999999997));
#1560=CARTESIAN_POINT('',(27.5405989232418,-22.3499999999991,-11.6999999999997));
#1561=CARTESIAN_POINT('',(27.5405989232418,-22.3499999999991,-21.6999999999997));
#1562=CARTESIAN_POINT('',(28.6952994616211,-24.349999999999,-11.6999999999997));
#1563=CARTESIAN_POINT('',(28.6952994616211,-24.349999999999,-11.6999999999997));
#1564=CARTESIAN_POINT('',(28.6952994616211,-24.349999999999,-10.8499999999999));
#1565=CARTESIAN_POINT('Origin',(28.6952994616211,-20.349999999999,-21.6999999999997));
#1566=CARTESIAN_POINT('',(28.6952994616211,-20.349999999999,-21.6999999999997));
#1567=CARTESIAN_POINT('',(29.0729201086406,-19.6959418533742,-21.6999999999997));
#1568=CARTESIAN_POINT('',(28.6952994616211,-20.349999999999,-11.6999999999997));
#1569=CARTESIAN_POINT('',(28.6952994616211,-20.349999999999,-21.6999999999997));
#1570=CARTESIAN_POINT('',(27.5405989232418,-22.3499999999991,-11.6999999999997));
#1571=CARTESIAN_POINT('Origin',(31.0047005383796,-20.349999999999,-21.6999999999997));
#1572=CARTESIAN_POINT('',(31.0047005383796,-20.349999999999,-21.6999999999997));
#1573=CARTESIAN_POINT('',(-0.422649730809231,-20.3499999999991,-21.6999999999997));
#1574=CARTESIAN_POINT('',(31.0047005383796,-20.349999999999,-11.6999999999997));
#1575=CARTESIAN_POINT('',(31.0047005383796,-20.349999999999,-21.6999999999997));
#1576=CARTESIAN_POINT('',(28.6952994616211,-20.349999999999,-11.6999999999997));
#1577=CARTESIAN_POINT('Origin',(31.8500000000003,-21.8141016151368,-21.6999999999997));
#1578=CARTESIAN_POINT('',(31.8500000000003,-21.8141016151368,-21.6999999999997));
#1579=CARTESIAN_POINT('',(15.6247296221708,6.28889104580617,-21.6999999999997));
#1580=CARTESIAN_POINT('',(31.8500000000003,-21.8141016151368,-11.6999999999997));
#1581=CARTESIAN_POINT('',(31.8500000000003,-21.8141016151368,-10.8499999999999));
#1582=CARTESIAN_POINT('',(31.0047005383796,-20.349999999999,-11.6999999999997));
#1583=CARTESIAN_POINT('Origin',(29.6952994616211,-22.349999999999,-11.6999999999997));
#1584=CARTESIAN_POINT('',(31.8500000000003,-24.349999999999,-11.6999999999997));
#1585=CARTESIAN_POINT('',(30.7726497308107,-24.349999999999,-11.6999999999997));
#1586=CARTESIAN_POINT('',(31.8500000000003,1.00000000000024,-11.6999999999997));
#1587=CARTESIAN_POINT('',(28.8500000000003,-22.349999999999,-11.6999999999997));
#1588=CARTESIAN_POINT('Origin',(29.8500000000003,-22.349999999999,-11.6999999999997));
#1589=CARTESIAN_POINT('Origin',(-31.0047005383774,-20.349999999999,-21.6999999999997));
#1590=CARTESIAN_POINT('',(-31.0047005383774,-20.349999999999,-21.6999999999997));
#1591=CARTESIAN_POINT('',(-31.8499999999981,-21.8141016151368,-21.6999999999997));
#1592=CARTESIAN_POINT('',(-23.164579891358,-6.77051270189178,-21.6999999999997));
#1593=CARTESIAN_POINT('',(-31.0047005383774,-20.349999999999,-11.6999999999997));
#1594=CARTESIAN_POINT('',(-31.0047005383774,-20.349999999999,-21.6999999999997));
#1595=CARTESIAN_POINT('',(-31.8499999999981,-21.8141016151368,-11.6999999999997));
#1596=CARTESIAN_POINT('',(-32.1594010767566,-22.3499999999991,-11.6999999999997));
#1597=CARTESIAN_POINT('',(-31.8499999999981,-21.8141016151368,-10.8499999999999));
#1598=CARTESIAN_POINT('Origin',(-28.6952994616188,-20.349999999999,-21.6999999999997));
#1599=CARTESIAN_POINT('',(-28.6952994616188,-20.349999999999,-21.6999999999997));
#1600=CARTESIAN_POINT('',(-30.2726497308084,-20.349999999999,-21.6999999999997));
#1601=CARTESIAN_POINT('',(-28.6952994616188,-20.349999999999,-11.6999999999997));
#1602=CARTESIAN_POINT('',(-28.6952994616188,-20.349999999999,-21.6999999999997));
#1603=CARTESIAN_POINT('',(-31.0047005383774,-20.349999999999,-11.6999999999997));
#1604=CARTESIAN_POINT('Origin',(-27.5405989232396,-22.349999999999,-21.6999999999997));
#1605=CARTESIAN_POINT('',(-27.5405989232396,-22.349999999999,-21.6999999999997));
#1606=CARTESIAN_POINT('',(-36.4580698394486,-6.90448729810738,-21.6999999999997));
#1607=CARTESIAN_POINT('',(-27.5405989232396,-22.349999999999,-11.6999999999997));
#1608=CARTESIAN_POINT('',(-27.5405989232396,-22.349999999999,-21.6999999999997));
#1609=CARTESIAN_POINT('',(-28.6952994616188,-20.349999999999,-11.6999999999997));
#1610=CARTESIAN_POINT('Origin',(-28.6952994616188,-24.349999999999,-21.6999999999997));
#1611=CARTESIAN_POINT('',(-28.6952994616188,-24.349999999999,-21.6999999999997));
#1612=CARTESIAN_POINT('',(-20.2778285454099,-9.77051270189178,-21.6999999999997));
#1613=CARTESIAN_POINT('',(-28.6952994616188,-24.349999999999,-11.6999999999997));
#1614=CARTESIAN_POINT('',(-28.6952994616189,-24.349999999999,-10.8499999999999));
#1615=CARTESIAN_POINT('',(-27.5405989232396,-22.349999999999,-11.6999999999997));
#1616=CARTESIAN_POINT('Origin',(-29.6952994616188,-22.349999999999,-11.6999999999997));
#1617=CARTESIAN_POINT('',(-31.8499999999981,-24.349999999999,-11.6999999999997));
#1618=CARTESIAN_POINT('',(1.07735026919074,-24.349999999999,-11.6999999999997));
#1619=CARTESIAN_POINT('',(-31.8499999999981,-2.99999999999975,-11.6999999999997));
#1620=CARTESIAN_POINT('',(-30.8499999999981,-22.349999999999,-11.6999999999997));
#1621=CARTESIAN_POINT('Origin',(-29.8499999999981,-22.349999999999,-11.6999999999997));
#1622=CARTESIAN_POINT('Origin',(-31.8499999999981,16.3499999999995,-21.6999999999997));
#1623=CARTESIAN_POINT('',(31.8500000000003,8.17499999999989,-21.6999999999997));
#1624=CARTESIAN_POINT('',(-31.8499999999981,-24.349999999999,-21.7000000000001));
#1625=CARTESIAN_POINT('',(-31.8499999999981,16.3499999999995,-21.6999999999997));
#1626=CARTESIAN_POINT('',(-31.8499999999981,24.3499999999995,-21.6999999999997));
#1627=CARTESIAN_POINT('',(-23.8499999999981,16.3499999999995,-21.6999999999997));
#1628=CARTESIAN_POINT('',(-23.8499999999981,-16.349999999999,-21.6999999999997));
#1629=CARTESIAN_POINT('',(-23.8499999999981,16.3499999999995,-21.6999999999997));
#1630=CARTESIAN_POINT('',(23.8500000000003,-16.349999999999,-21.6999999999997));
#1631=CARTESIAN_POINT('',(-31.8499999999981,-16.349999999999,-21.7000000000001));
#1632=CARTESIAN_POINT('',(23.8500000000003,16.3499999999995,-21.6999999999997));
#1633=CARTESIAN_POINT('',(23.8500000000003,16.3499999999995,-21.6999999999997));
#1634=CARTESIAN_POINT('',(-31.8499999999981,16.3499999999995,-21.6999999999997));
#1635=CARTESIAN_POINT('Origin',(-31.8499999999981,16.3499999999995,0.));
#1636=CARTESIAN_POINT('',(-31.8499999999981,-24.349999999999,0.));
#1637=CARTESIAN_POINT('',(-31.8499999999981,-24.349999999999,-21.7000000000001));
#1638=CARTESIAN_POINT('',(-31.8499999999981,-16.349999999999,0.));
#1639=CARTESIAN_POINT('',(-31.8499999999981,24.3499999999995,0.));
#1640=CARTESIAN_POINT('',(-31.8499999999981,-16.349999999999,-19.6999999999998));
#1641=CARTESIAN_POINT('',(-31.8499999999981,-16.349999999999,0.));
#1642=CARTESIAN_POINT('',(-31.8499999999981,16.3499999999995,-19.6999999999998));
#1643=CARTESIAN_POINT('',(-31.8499999999981,16.3499999999995,-19.6999999999998));
#1644=CARTESIAN_POINT('',(-31.8499999999981,16.3499999999995,0.));
#1645=CARTESIAN_POINT('',(-31.8499999999981,16.3499999999995,0.));
#1646=CARTESIAN_POINT('',(-31.8499999999981,24.3499999999995,0.));
#1647=CARTESIAN_POINT('',(-31.8499999999981,24.3499999999995,0.));
#1648=CARTESIAN_POINT('',(-31.8499999999981,24.3499999999995,-21.6999999999997));
#1649=CARTESIAN_POINT('Origin',(31.8500000000003,-24.349999999999,0.));
#1650=CARTESIAN_POINT('',(31.8500000000003,-24.349999999999,0.));
#1651=CARTESIAN_POINT('',(31.8500000000003,-24.349999999999,-20.2));
#1652=CARTESIAN_POINT('',(-31.8499999999981,-24.349999999999,0.));
#1653=CARTESIAN_POINT('',(-23.8499999999981,-24.349999999999,0.));
#1654=CARTESIAN_POINT('',(-23.8499999999981,-24.349999999999,0.));
#1655=CARTESIAN_POINT('',(-31.8499999999981,-24.349999999999,0.));
#1656=CARTESIAN_POINT('Origin',(-29.8499999999981,22.3499999999995,-21.6999999999997));
#1657=CARTESIAN_POINT('',(-30.8499999999981,22.3499999999995,0.));
#1658=CARTESIAN_POINT('',(-30.8499999999981,22.3499999999995,-21.6999999999997));
#1659=CARTESIAN_POINT('Origin',(-29.8499999999981,22.3499999999995,0.));
#1660=CARTESIAN_POINT('Origin',(-29.8499999999981,-22.349999999999,-21.6999999999997));
#1661=CARTESIAN_POINT('',(-30.8499999999981,-22.349999999999,0.));
#1662=CARTESIAN_POINT('',(-30.8499999999981,-22.349999999999,-21.6999999999997));
#1663=CARTESIAN_POINT('Origin',(-29.8499999999981,-22.349999999999,0.));
#1664=CARTESIAN_POINT('Origin',(29.8500000000003,22.3499999999995,-21.6999999999997));
#1665=CARTESIAN_POINT('',(28.8500000000003,22.3499999999995,0.));
#1666=CARTESIAN_POINT('',(28.8500000000003,22.3499999999995,-21.6999999999997));
#1667=CARTESIAN_POINT('Origin',(29.8500000000003,22.3499999999995,0.));
#1668=CARTESIAN_POINT('Origin',(29.8500000000003,-22.349999999999,-21.6999999999997));
#1669=CARTESIAN_POINT('',(28.8500000000003,-22.349999999999,0.));
#1670=CARTESIAN_POINT('',(28.8500000000003,-22.349999999999,-21.6999999999997));
#1671=CARTESIAN_POINT('Origin',(29.8500000000003,-22.349999999999,0.));
#1672=CARTESIAN_POINT('Origin',(-23.8499999999981,16.3499999999995,-21.6999999999997));
#1673=CARTESIAN_POINT('',(-23.8499999999981,-16.349999999999,-19.6999999999998));
#1674=CARTESIAN_POINT('',(-23.8499999999981,-16.349999999999,-10.8499999999999));
#1675=CARTESIAN_POINT('',(-23.8499999999981,16.3499999999995,-19.6999999999998));
#1676=CARTESIAN_POINT('',(-23.8499999999981,16.3499999999995,-10.8499999999999));
#1677=CARTESIAN_POINT('',(-23.8499999999981,16.3499999999995,-19.6999999999998));
#1678=CARTESIAN_POINT('Origin',(31.8500000000003,16.3499999999995,0.));
#1679=CARTESIAN_POINT('',(-27.8499999999981,16.3499999999995,-19.6999999999998));
#1680=CARTESIAN_POINT('',(4.00000000000111,16.3499999999995,-19.6999999999998));
#1681=CARTESIAN_POINT('',(-27.8499999999981,16.3499999999995,0.));
#1682=CARTESIAN_POINT('',(-27.8499999999981,16.3499999999995,0.));
#1683=CARTESIAN_POINT('',(-31.8499999999981,16.3499999999995,0.));
#1684=CARTESIAN_POINT('Origin',(31.8500000000003,16.3499999999995,0.));
#1685=CARTESIAN_POINT('',(23.8500000000003,16.3499999999995,-19.6999999999998));
#1686=CARTESIAN_POINT('',(23.8500000000003,16.3499999999995,-9.84999999999989));
#1687=CARTESIAN_POINT('',(-31.8499999999981,16.3499999999995,-19.6999999999997));
#1688=CARTESIAN_POINT('Origin',(27.8500000000003,-16.349999999999,0.));
#1689=CARTESIAN_POINT('',(-27.8499999999981,-16.349999999999,-19.7));
#1690=CARTESIAN_POINT('',(2.00000000000111,-16.349999999999,-19.6999999999998));
#1691=CARTESIAN_POINT('',(-27.8499999999981,-16.349999999999,0.));
#1692=CARTESIAN_POINT('',(-31.8499999999981,-16.349999999999,0.));
#1693=CARTESIAN_POINT('',(-27.8499999999981,-16.349999999999,0.));
#1694=CARTESIAN_POINT('Origin',(27.8500000000003,-16.349999999999,0.));
#1695=CARTESIAN_POINT('',(23.8500000000003,-16.349999999999,-19.6999999999998));
#1696=CARTESIAN_POINT('',(-31.8499999999981,-16.349999999999,-19.7));
#1697=CARTESIAN_POINT('',(23.8500000000003,-16.349999999999,-9.84999999999989));
#1698=CARTESIAN_POINT('Origin',(23.8500000000003,16.3499999999995,-19.6999999999998));
#1699=CARTESIAN_POINT('',(23.8500000000003,16.3499999999995,-19.6999999999998));
#1700=CARTESIAN_POINT('Origin',(27.8500000000003,-16.349999999999,0.));
#1701=CARTESIAN_POINT('',(31.8500000000003,-16.349999999999,-19.6999999999998));
#1702=CARTESIAN_POINT('',(27.8500000000003,-16.349999999999,-19.7));
#1703=CARTESIAN_POINT('',(29.8500000000003,-16.349999999999,-19.6999999999998));
#1704=CARTESIAN_POINT('',(27.8500000000003,-16.349999999999,0.));
#1705=CARTESIAN_POINT('',(27.8500000000003,-16.349999999999,0.));
#1706=CARTESIAN_POINT('',(31.8500000000003,-16.349999999999,0.));
#1707=CARTESIAN_POINT('',(31.8500000000003,-16.349999999999,0.));
#1708=CARTESIAN_POINT('',(31.8500000000003,-16.349999999999,0.));
#1709=CARTESIAN_POINT('Origin',(-27.8499999999981,-16.3499999999991,0.));
#1710=CARTESIAN_POINT('',(-27.8499999999981,-20.349999999999,-19.7000000000001));
#1711=CARTESIAN_POINT('',(-27.8499999999981,-8.17499999999932,-19.7));
#1712=CARTESIAN_POINT('',(-27.8499999999981,-20.349999999999,0.));
#1713=CARTESIAN_POINT('',(-27.8499999999981,20.3499999999995,0.));
#1714=CARTESIAN_POINT('',(-27.8499999999981,-20.349999999999,0.));
#1715=CARTESIAN_POINT('Origin',(-23.8499999999981,-20.349999999999,0.));
#1716=CARTESIAN_POINT('',(-23.8499999999981,-20.349999999999,0.));
#1717=CARTESIAN_POINT('',(-23.8499999999981,-20.349999999999,0.));
#1718=CARTESIAN_POINT('',(-23.8499999999981,-24.349999999999,0.));
#1719=CARTESIAN_POINT('Origin',(-27.8499999999981,-20.349999999999,0.));
#1720=CARTESIAN_POINT('',(-27.8499999999981,-20.349999999999,0.));
#1721=CARTESIAN_POINT('Origin',(23.8500000000003,-20.349999999999,0.));
#1722=CARTESIAN_POINT('',(27.8500000000003,-20.349999999999,-19.7000000000001));
#1723=CARTESIAN_POINT('',(11.9250000000007,-20.349999999999,-19.7000000000001));
#1724=CARTESIAN_POINT('',(27.8500000000003,-20.349999999999,0.));
#1725=CARTESIAN_POINT('',(-27.8499999999981,-20.349999999999,0.));
#1726=CARTESIAN_POINT('',(27.8500000000003,-20.349999999999,0.));
#1727=CARTESIAN_POINT('Origin',(27.8500000000003,-20.349999999999,0.));
#1728=CARTESIAN_POINT('',(27.8500000000003,-10.1749999999993,-19.7));
#1729=CARTESIAN_POINT('',(27.8500000000003,-20.349999999999,0.));
#1730=CARTESIAN_POINT('Origin',(27.8500000000003,-20.349999999999,0.));
#1731=CARTESIAN_POINT('',(31.8500000000003,-24.349999999999,0.));
#1732=CARTESIAN_POINT('Origin',(-31.8499999999981,24.3499999999995,-19.6999999999997));
#1733=CARTESIAN_POINT('',(31.8500000000003,16.3499999999995,-19.6999999999998));
#1734=CARTESIAN_POINT('',(31.8500000000003,16.3499999999995,-19.6999999999998));
#1735=CARTESIAN_POINT('',(27.8500000000003,16.3499999999995,-19.6999999999998));
#1736=CARTESIAN_POINT('',(31.8500000000003,16.3499999999995,-19.6999999999998));
#1737=CARTESIAN_POINT('',(27.8500000000003,20.3499999999995,-19.6999999999997));
#1738=CARTESIAN_POINT('',(27.8500000000003,8.17499999999997,-19.6999999999998));
#1739=CARTESIAN_POINT('',(-27.8499999999981,20.3499999999995,-19.6999999999997));
#1740=CARTESIAN_POINT('',(-11.9249999999985,20.3499999999995,-19.6999999999997));
#1741=CARTESIAN_POINT('',(-27.8499999999981,10.175,-19.6999999999998));
#1742=CARTESIAN_POINT('Origin',(-23.8499999999981,20.3499999999995,0.));
#1743=CARTESIAN_POINT('',(27.8500000000003,20.3499999999995,0.));
#1744=CARTESIAN_POINT('',(27.8500000000003,20.3499999999995,0.));
#1745=CARTESIAN_POINT('',(23.8500000000003,20.3499999999995,0.));
#1746=CARTESIAN_POINT('',(27.8500000000003,20.3499999999995,0.));
#1747=CARTESIAN_POINT('',(23.8500000000003,20.3499999999995,0.));
#1748=CARTESIAN_POINT('',(-23.8499999999981,20.3499999999995,0.));
#1749=CARTESIAN_POINT('',(-23.8499999999981,20.3499999999995,0.));
#1750=CARTESIAN_POINT('',(-27.8499999999981,20.3499999999995,0.));
#1751=CARTESIAN_POINT('',(27.8500000000003,20.3499999999995,0.));
#1752=CARTESIAN_POINT('',(-27.8499999999981,20.3499999999995,0.));
#1753=CARTESIAN_POINT('Origin',(-23.8499999999981,24.3499999999995,0.));
#1754=CARTESIAN_POINT('',(-23.8499999999981,24.3499999999995,0.));
#1755=CARTESIAN_POINT('',(-23.8499999999981,24.3499999999995,0.));
#1756=CARTESIAN_POINT('',(-23.8499999999981,24.3499999999995,0.));
#1757=CARTESIAN_POINT('Origin',(-27.8499999999981,20.3499999999995,0.));
#1758=CARTESIAN_POINT('',(-27.8499999999981,20.3499999999995,0.));
#1759=CARTESIAN_POINT('Origin',(-27.8499999999981,20.3499999999995,0.));
#1760=CARTESIAN_POINT('',(-31.8499999999981,24.3499999999995,0.));
#1761=CARTESIAN_POINT('Origin',(23.8500000000003,24.3499999999995,0.));
#1762=CARTESIAN_POINT('',(23.8500000000003,24.3499999999995,0.));
#1763=CARTESIAN_POINT('',(23.8500000000003,24.3499999999995,0.));
#1764=CARTESIAN_POINT('',(31.8500000000003,24.3499999999995,0.));
#1765=CARTESIAN_POINT('',(-31.8499999999981,24.3499999999995,0.));
#1766=CARTESIAN_POINT('',(31.8500000000003,24.3499999999995,0.));
#1767=CARTESIAN_POINT('Origin',(23.8500000000003,20.3499999999995,0.));
#1768=CARTESIAN_POINT('',(23.8500000000003,20.3499999999995,0.));
#1769=CARTESIAN_POINT('Origin',(27.8500000000003,16.3499999999995,0.));
#1770=CARTESIAN_POINT('',(27.8500000000003,16.3499999999995,0.));
#1771=CARTESIAN_POINT('',(27.8500000000003,16.3499999999995,0.));
#1772=CARTESIAN_POINT('',(27.8500000000003,-20.349999999999,0.));
#1773=CARTESIAN_POINT('Origin',(31.8500000000003,16.3499999999995,0.));
#1774=CARTESIAN_POINT('',(31.8500000000003,16.3499999999995,0.));
#1775=CARTESIAN_POINT('',(31.8500000000003,16.3499999999995,0.));
#1776=CARTESIAN_POINT('',(27.8500000000003,16.3499999999995,0.));
#1777=CARTESIAN_POINT('Origin',(31.8500000000003,24.3499999999995,0.));
#1778=CARTESIAN_POINT('',(31.8500000000003,24.3499999999995,0.));
#1779=CARTESIAN_POINT('Origin',(27.8500000000003,20.3499999999995,0.));
#1780=UNCERTAINTY_MEASURE_WITH_UNIT(LENGTH_MEASURE(0.01),#1784,
'DISTANCE_ACCURACY_VALUE',
'Maximum model space distance between geometric entities at asserted c
onnectivities');
#1781=UNCERTAINTY_MEASURE_WITH_UNIT(LENGTH_MEASURE(0.01),#1784,
'DISTANCE_ACCURACY_VALUE',
'Maximum model space distance between geometric entities at asserted c
onnectivities');
#1782=(
GEOMETRIC_REPRESENTATION_CONTEXT(3)
GLOBAL_UNCERTAINTY_ASSIGNED_CONTEXT((#1780))
GLOBAL_UNIT_ASSIGNED_CONTEXT((#1784,#1785,#1786))
REPRESENTATION_CONTEXT('','3D')
);
#1783=(
GEOMETRIC_REPRESENTATION_CONTEXT(3)
GLOBAL_UNCERTAINTY_ASSIGNED_CONTEXT((#1781))
GLOBAL_UNIT_ASSIGNED_CONTEXT((#1784,#1785,#1786))
REPRESENTATION_CONTEXT('','3D')
);
#1784=(
LENGTH_UNIT()
NAMED_UNIT(*)
SI_UNIT(.MILLI.,.METRE.)
);
#1785=(
NAMED_UNIT(*)
PLANE_ANGLE_UNIT()
SI_UNIT($,.RADIAN.)
);
#1786=(
NAMED_UNIT(*)
SI_UNIT($,.STERADIAN.)
SOLID_ANGLE_UNIT()
);
#1787=SHAPE_DEFINITION_REPRESENTATION(#1788,#1789);
#1788=PRODUCT_DEFINITION_SHAPE('',$,#1791);
#1789=SHAPE_REPRESENTATION('',(#1128),#1782);
#1790=PRODUCT_DEFINITION_CONTEXT('part definition',#1795,'design');
#1791=PRODUCT_DEFINITION('2026-10-05-13-42-48-431','Just_a_Pi_Case',#1792,
#1790);
#1792=PRODUCT_DEFINITION_FORMATION('',$,#1797);
#1793=PRODUCT_RELATED_PRODUCT_CATEGORY('Just_a_Pi_Case',
'Just_a_Pi_Case',(#1797));
#1794=APPLICATION_PROTOCOL_DEFINITION('international standard',
'automotive_design',2009,#1795);
#1795=APPLICATION_CONTEXT(
'Core Data for Automotive Mechanical Design Process');
#1796=PRODUCT_CONTEXT('part definition',#1795,'mechanical');
#1797=PRODUCT('2026-10-05-13-42-48-431','Just_a_Pi_Case',$,(#1796));
#1798=PRESENTATION_STYLE_ASSIGNMENT((#1799));
#1799=SURFACE_STYLE_USAGE(.BOTH.,#1800);
#1800=SURFACE_SIDE_STYLE('',(#1801));
#1801=SURFACE_STYLE_FILL_AREA(#1802);
#1802=FILL_AREA_STYLE('Steel - Satin',(#1803));
#1803=FILL_AREA_STYLE_COLOUR('Steel - Satin',#1804);
#1804=COLOUR_RGB('Steel - Satin',0.627450980392157,0.627450980392157,0.627450980392157);
ENDSEC;
END-ISO-10303-21;
